<?xml version="1.0" encoding="UTF-8" standalone="no"?>
<svg
   xmlns:dc="http://purl.org/dc/elements/1.1/"
   xmlns:cc="http://creativecommons.org/ns#"
   xmlns:rdf="http://www.w3.org/1999/02/22-rdf-syntax-ns#"
   xmlns:svg="http://www.w3.org/2000/svg"
   xmlns="http://www.w3.org/2000/svg"
   xmlns:sodipodi="http://sodipodi.sourceforge.net/DTD/sodipodi-0.dtd"
   xmlns:inkscape="http://www.inkscape.org/namespaces/inkscape"
   id="Layer_1"
   data-name="Layer 1"
   viewBox="0 0 48 48"
   version="1.1"
   sodipodi:docname="ic_no_connect.svg"
   inkscape:version="0.92.4 (5da689c313, 2019-01-14)">
  <metadata
     id="metadata4614">
    <rdf:RDF>
      <cc:Work
         rdf:about="">
        <dc:format>image/svg+xml</dc:format>
        <dc:type
           rdf:resource="http://purl.org/dc/dcmitype/StillImage" />
        <dc:title>cable, connect, connection, computer, hardware</dc:title>
      </cc:Work>
    </rdf:RDF>
  </metadata>
  <sodipodi:namedview
     pagecolor="#ffffff"
     bordercolor="#666666"
     borderopacity="1"
     objecttolerance="10"
     gridtolerance="10"
     guidetolerance="10"
     inkscape:pageopacity="0"
     inkscape:pageshadow="2"
     inkscape:window-width="1360"
     inkscape:window-height="705"
     id="namedview4612"
     showgrid="false"
     inkscape:zoom="7.8960257"
     inkscape:cx="31.232829"
     inkscape:cy="22.706383"
     inkscape:window-x="-8"
     inkscape:window-y="141"
     inkscape:window-maximized="1"
     inkscape:current-layer="Layer_1" />
  <defs
     id="defs4569">
    <style
       id="style4567">.cls-1{fill:#fc6;}.cls-2{fill:#425b72;}.cls-3{fill:#ffba55;}.cls-4{fill:#2c435e;}.cls-5{fill:#374f68;}</style>
  </defs>
  <title
     id="title4571">cable, connect, connection, computer, hardware</title>
  <rect
     class="cls-1"
     x="37.71"
     y="36.73"
     width="11.75"
     height="7.83"
     transform="translate(2.94 84.23) rotate(-90)"
     id="rect4573"
     style="fill:#666666" />
  <path
     class="cls-2"
     d="M30.85,34.77h5.88a3.92,3.92,0,0,1,3.92,3.92v7.83a0,0,0,0,1,0,0H26.94a0,0,0,0,1,0,0V38.69A3.92,3.92,0,0,1,30.85,34.77Z"
     transform="translate(-6.85 74.44) rotate(-90)"
     id="path4575"
     style="fill:#666666" />
  <rect
     class="cls-3"
     x="41.14"
     y="42.11"
     width="2.94"
     height="1.96"
     transform="translate(-0.49 85.7) rotate(-90)"
     id="rect4577"
     style="fill:#666666" />
  <rect
     class="cls-3"
     x="41.62"
     y="40.65"
     width="1.96"
     height="5.87"
     transform="translate(-0.98 86.19) rotate(-90)"
     id="rect4579"
     style="fill:#666666" />
  <rect
     class="cls-3"
     x="41.14"
     y="37.22"
     width="2.94"
     height="1.96"
     transform="translate(80.8 -4.41) rotate(90)"
     id="rect4581"
     style="fill:#666666" />
  <rect
     class="cls-3"
     x="41.62"
     y="34.77"
     width="1.96"
     height="5.87"
     transform="translate(80.31 -4.9) rotate(90)"
     id="rect4583"
     style="fill:#666666" />
  <polygon
     class="cls-4"
     points="27.92 37.71 27.92 43.58 24 42.6 24 38.69 27.92 37.71"
     id="polygon4585"
     style="fill:#666666" />
  <rect
     class="cls-5"
     x="30.85"
     y="39.67"
     width="9.79"
     height="1.96"
     transform="translate(-4.9 76.4) rotate(-90)"
     id="rect4587"
     style="fill:#666666" />
  <rect
     class="cls-5"
     x="26.94"
     y="39.67"
     width="9.79"
     height="1.96"
     transform="translate(-8.81 72.48) rotate(-90)"
     id="rect4589"
     style="fill:#666666" />
  <rect
     class="cls-1"
     x="-1.46"
     y="3.44"
     width="11.75"
     height="7.83"
     transform="translate(11.77 2.94) rotate(90)"
     id="rect4591"
     style="fill:#666666" />
  <path
     class="cls-2"
     d="M11.27,1.48h5.88A3.92,3.92,0,0,1,21.06,5.4v7.83a0,0,0,0,1,0,0H7.35a0,0,0,0,1,0,0V5.4a3.92,3.92,0,0,1,3.92-3.92Z"
     transform="translate(21.56 -6.85) rotate(90)"
     id="path4593"
     style="fill:#666666" />
  <rect
     class="cls-3"
     x="3.93"
     y="3.93"
     width="2.94"
     height="1.96"
     transform="translate(10.3 -0.49) rotate(90)"
     id="rect4595"
     style="fill:#666666" />
  <rect
     class="cls-3"
     x="4.42"
     y="1.48"
     width="1.96"
     height="5.87"
     transform="translate(9.81 -0.98) rotate(90)"
     id="rect4597"
     style="fill:#666666" />
  <rect
     class="cls-3"
     x="3.93"
     y="8.82"
     width="2.94"
     height="1.96"
     transform="translate(-4.41 15.2) rotate(-90)"
     id="rect4599"
     style="fill:#666666" />
  <rect
     class="cls-3"
     x="4.42"
     y="7.35"
     width="1.96"
     height="5.87"
     transform="translate(-4.9 15.69) rotate(-90)"
     id="rect4601"
     style="fill:#666666" />
  <polygon
     class="cls-4"
     points="20.08 10.29 20.08 4.42 24 5.4 24 9.31 20.08 10.29"
     id="polygon4603"
     style="fill:#666666" />
  <rect
     class="cls-5"
     x="7.35"
     y="6.37"
     width="9.79"
     height="1.96"
     transform="translate(19.6 -4.9) rotate(90)"
     id="rect4605"
     style="fill:#666666" />
  <rect
     class="cls-5"
     x="11.27"
     y="6.37"
     width="9.79"
     height="1.96"
     transform="translate(23.52 -8.81) rotate(90)"
     id="rect4607"
     style="fill:#666666" />
  <polygon
     class="cls-2"
     points="24 9.31 43.58 9.31 43.58 22.04 0.5 22.04 0.5 42.6 24 42.6 24 38.69 4.42 38.69 4.42 25.96 47.5 25.96 47.5 5.4 24 5.4 24 9.31"
     id="polygon4609"
     style="fill:#666666" />
  <g
     transform="matrix(0.0760403,0,0,0.07915629,0.93659976,-7.93024)"
     id="g4633"
     style="fill:#800000">
    <polygon
       class="st0"
       points="228.6,396.4 50,575 126.8,651.8 305.4,473.2 484,651.8 560.8,575 382.2,396.4 560.8,217.8 484,141 305.4,319.6 126.8,141 50,217.8 "
       id="polygon4631"
       style="fill:#800000" />
  </g>
</svg>
