<?xml version="1.0" encoding="utf-8"?>
<!-- Generator: Adobe Illustrator 23.0.3, SVG Export Plug-In . SVG Version: 6.00 Build 0)  -->
<svg version="1.1" id="Capa_1" xmlns="http://www.w3.org/2000/svg" xmlns:xlink="http://www.w3.org/1999/xlink" x="0px" y="0px"
	 viewBox="0 0 509.1 509.1" style="enable-background:new 0 0 509.1 509.1;" xml:space="preserve">
<style type="text/css">
	.st0{fill:url(#SVGID_1_);}
</style>
<linearGradient id="SVGID_1_" gradientUnits="userSpaceOnUse" x1="0.856" y1="254.527" x2="508.196" y2="254.527">
	<stop  offset="0" style="stop-color:#1245C6"/>
	<stop  offset="1" style="stop-color:#9909B7"/>
</linearGradient>
<path class="st0" d="M75.4,0H45.1L6.3,36.3L26.6,58c8-7,12.8-12.2,14.3-15.4h0.6V46c0,7.6,0,19.1-0.1,34.5
	c-0.1,15.4-0.1,27-0.1,34.8H10.6v28.3h95.6v-28.3H75.4V0z M505.5,73.2c-1.8-1.8-4-2.7-6.4-2.7H151.9c-2.5,0-4.6,0.9-6.4,2.7
	c-1.8,1.8-2.7,3.9-2.7,6.4v54.8c0,2.5,0.9,4.6,2.7,6.4c1.8,1.8,3.9,2.7,6.4,2.7h347.2c2.5,0,4.6-0.9,6.4-2.7
	c1.8-1.8,2.7-3.9,2.7-6.4V79.7C508.2,77.2,507.3,75,505.5,73.2z M73.7,420.8l27.1-32.8v-25.1H5.7v43.4H36v-15.1
	c3,0,7.7-0.1,13.8-0.3c6.2-0.2,10.8-0.3,13.8-0.3v0.3c-3.6,3.4-7.1,7.1-10.6,11c-3.4,3.9-7.5,9-12.1,15.4
	c-4.7,6.4-7.8,10.5-9.3,12.4l7.4,16c20-1.5,30,3.8,30,16c0,5.3-2,9.4-6.1,12.1c-4.1,2.8-8.9,4.1-14.4,4.1
	c-10.8,0-20.9-4.3-30.3-12.9L2,490.2c12.6,12.6,28.9,18.8,49.1,18.8c15.4,0,28.3-4.4,38.7-13.1c10.4-8.8,15.6-20.7,15.6-36
	c0-9.7-2.9-18.1-8.6-25.1C91.1,427.8,83.4,423.1,73.7,420.8z M75.9,298.1H39.7c0.2-4.8,3.6-9.8,10.1-15c6.6-5.2,13.7-10,21.6-14.4
	c7.8-4.4,14.9-10.5,21.4-18.4c6.5-7.9,9.7-16.6,9.7-26.1c0-13.5-4.8-24.2-14.3-32.1c-9.5-7.9-21.2-11.8-35.1-11.8
	c-11,0-21.1,2.7-30.1,8.1c-9,5.4-15.8,13-20.4,22.7l24.3,16.8c6.7-11,14.4-16.6,23.1-16.6c4.8,0,8.5,1.3,11.3,3.9
	c2.8,2.6,4.1,6.2,4.1,11c0,4.4-2.2,8.7-6.7,12.8c-4.5,4.2-9.9,8.3-16.1,12.4C36.3,255.5,30,260,23.7,265
	c-6.3,4.9-11.7,11.4-16.1,19.4c-4.5,8-6.7,16.8-6.7,26.6c0,3.4,0.6,8.6,1.7,15.4h103.4v-45.4v0h-30V298.1z M499.1,362.9H151.9
	c-2.7,0-4.9,0.9-6.6,2.6c-1.7,1.7-2.6,3.9-2.6,6.6v54.8c0,2.5,0.9,4.6,2.7,6.4c1.8,1.8,3.9,2.7,6.4,2.7h347.2c2.5,0,4.6-0.9,6.4-2.7
	c1.8-1.8,2.7-3.9,2.7-6.4V372c0-2.5-0.9-4.6-2.7-6.4C503.7,363.8,501.5,362.9,499.1,362.9z M499.1,216.7H151.9
	c-2.7,0-4.9,0.9-6.6,2.6c-1.7,1.7-2.6,3.9-2.6,6.6v54.8c0,2.5,0.9,4.6,2.7,6.4c1.8,1.8,3.9,2.7,6.4,2.7h347.2c2.5,0,4.6-0.9,6.4-2.7
	c1.8-1.8,2.7-3.9,2.7-6.4v-54.8c0-2.5-0.9-4.6-2.7-6.4C503.7,217.6,501.5,216.7,499.1,216.7z"/>
</svg>
