<?xml version="1.0" encoding="utf-8"?>
<!-- Generator: Adobe Illustrator 23.0.3, SVG Export Plug-In . SVG Version: 6.00 Build 0)  -->
<svg version="1.1" id="Capa_1" xmlns="http://www.w3.org/2000/svg" xmlns:xlink="http://www.w3.org/1999/xlink" x="0px" y="0px"
	 viewBox="0 0 511.6 511.6" style="enable-background:new 0 0 511.6 511.6;" xml:space="preserve">
<style type="text/css">
	.st0{fill:url(#SVGID_1_);}
</style>
<linearGradient id="SVGID_1_" gradientUnits="userSpaceOnUse" x1="4.4568" y1="255.8125" x2="507.169" y2="255.8125">
	<stop  offset="0" style="stop-color:#1245C6"/>
	<stop  offset="1" style="stop-color:#9909B7"/>
</linearGradient>
<path class="st0" d="M260.5,219.3h127.9c2.7,0,4.9-0.9,6.6-2.6c1.7-1.7,2.6-3.9,2.6-6.6v-54.8c0-2.7-0.9-4.9-2.6-6.6
	c-1.7-1.7-3.9-2.6-6.6-2.6H260.5c-2.7,0-4.9,0.9-6.6,2.6c-1.7,1.7-2.6,3.9-2.6,6.6v54.8c0,2.7,0.9,4.9,2.6,6.6
	C255.6,218.4,257.8,219.3,260.5,219.3z M260.5,73.1h73.1c2.7,0,4.9-0.9,6.6-2.6c1.7-1.7,2.6-3.9,2.6-6.6V9.1c0-2.7-0.8-4.9-2.6-6.6
	c-1.7-1.7-3.9-2.6-6.6-2.6h-73.1c-2.7,0-4.9,0.9-6.6,2.6c-1.7,1.7-2.6,3.9-2.6,6.6V64c0,2.7,0.9,4.9,2.6,6.6
	C255.6,72.2,257.8,73.1,260.5,73.1z M196.5,402h-54.8V9.1c0-2.7-0.9-4.9-2.6-6.6c-1.7-1.7-3.9-2.6-6.6-2.6H77.8
	c-2.7,0-4.9,0.9-6.6,2.6c-1.7,1.7-2.6,3.9-2.6,6.6V402H13.8c-4.2,0-7,1.9-8.6,5.7c-1.5,3.6-0.9,7,2,10l91.4,91.4
	c2.1,1.7,4.3,2.6,6.6,2.6c2.5,0,4.7-0.9,6.6-2.6l91.1-91.1c1.9-2.3,2.9-4.6,2.9-6.8c0-2.7-0.9-4.9-2.6-6.6
	C201.4,402.8,199.2,402,196.5,402z M504.6,441.1c-1.7-1.7-3.9-2.6-6.6-2.6H260.5c-2.7,0-4.9,0.9-6.6,2.6c-1.7,1.7-2.6,3.9-2.6,6.6
	v54.8c0,2.7,0.9,4.9,2.6,6.6c1.7,1.7,3.9,2.6,6.6,2.6H498c2.7,0,4.9-0.9,6.6-2.6c1.7-1.7,2.6-3.9,2.6-6.6v-54.8
	C507.2,445,506.3,442.8,504.6,441.1z M260.5,365.4h182.7c2.7,0,4.9-0.9,6.6-2.6c1.7-1.7,2.6-3.9,2.6-6.6v-54.8
	c0-2.7-0.9-4.9-2.6-6.6c-1.7-1.7-3.9-2.6-6.6-2.6H260.5c-2.7,0-4.9,0.9-6.6,2.6c-1.7,1.7-2.6,3.9-2.6,6.6v54.8
	c0,2.7,0.9,4.9,2.6,6.6C255.6,364.6,257.8,365.4,260.5,365.4z"/>
</svg>
