<?xml version="1.0" encoding="utf-8"?>
<!-- Generator: Adobe Illustrator 23.0.3, SVG Export Plug-In . SVG Version: 6.00 Build 0)  -->
<svg version="1.1" id="Capa_1" xmlns="http://www.w3.org/2000/svg" xmlns:xlink="http://www.w3.org/1999/xlink" x="0px" y="0px"
	 viewBox="0 0 511.6 511.6" style="enable-background:new 0 0 511.6 511.6;" xml:space="preserve">
<style type="text/css">
	.st0{fill:url(#SVGID_1_);}
</style>
<linearGradient id="SVGID_1_" gradientUnits="userSpaceOnUse" x1="48.1306" y1="255.814" x2="463.5001" y2="255.814">
	<stop  offset="0" style="stop-color:#1245C6"/>
	<stop  offset="1" style="stop-color:#9909B7"/>
</linearGradient>
<path class="st0" d="M240.2,402h-54.8V9.1c0-2.7-0.9-4.9-2.6-6.6c-1.7-1.7-3.9-2.6-6.6-2.6h-54.8c-2.7,0-4.9,0.9-6.6,2.6
	c-1.7,1.7-2.6,3.9-2.6,6.6V402H57.5c-4.2,0-7,1.9-8.6,5.7c-1.5,3.6-0.9,7,2,10l91.4,91.4c2.1,1.7,4.3,2.6,6.6,2.6
	c2.5,0,4.7-0.9,6.6-2.6l91.1-91.1c1.9-2.3,2.9-4.6,2.9-6.8c0-2.7-0.9-4.9-2.6-6.6C245.1,402.8,242.9,402,240.2,402z M440.1,319.3
	c-15.6-18-35.1-27-58.5-27c-20.7,0-38,6.9-51.7,20.8c-13.7,13.9-20.5,30.8-20.5,50.8c0,19.2,6.4,35.6,19.1,49.3
	c12.8,13.6,29.2,20.4,49.4,20.4c8.4,0,16.4-1.3,24.1-4c7.7-2.7,13.6-6.2,17.6-10.6h0.6c-3,16.6-9.4,30.4-19,41.5
	s-22.4,16.7-38.4,16.7c-7.2,0-14.4-1.2-21.4-3.7c-3-0.8-6-1.8-8.9-3.1l-11.1,32.3c3.4,1.3,7.4,2.8,12,4.3c8.8,3,19,4.6,30.8,4.6
	c13.1,0,25.3-2.3,36.4-7c11.1-4.7,20.5-10.9,28.1-18.7c7.6-7.8,14.1-16.9,19.4-27.3c5.3-10.4,9.2-21.2,11.7-32.5
	c2.5-11.3,3.7-22.9,3.7-34.7C463.5,361.4,455.7,337.3,440.1,319.3z M413.5,394.3c-6.7,5.1-14.8,7.7-24.3,7.7
	c-12.9,0-22.9-3.6-29.8-10.8c-6.9-7.2-10.4-16.3-10.4-27.1c0-10.8,3-19.8,8.9-26.8c5.9-7,13.8-10.6,23.7-10.6c11.2,0,21,5,29.4,15.1
	c8.4,10.1,12.6,21.1,12.6,33.1C423.5,382.7,420.2,389.2,413.5,394.3z M359,60.8c3.4-3.4,5.9-6.4,7.4-8.9l2-3.4h0.6v4.6
	c0,0.9-0.1,2.6-0.1,4.9c-0.1,2.3-0.1,4.1-0.1,5.4v123.3H321v32.5h133.9v-32.5h-47.1V0h-35.1l-54.8,52.8l23.4,24.6L359,60.8z"/>
</svg>
