<?xml version="1.0" encoding="utf-8"?>
<!-- Generator: Adobe Illustrator 23.0.3, SVG Export Plug-In . SVG Version: 6.00 Build 0)  -->
<svg version="1.1" id="Capa_1" xmlns="http://www.w3.org/2000/svg" xmlns:xlink="http://www.w3.org/1999/xlink" x="0px" y="0px"
	 viewBox="0 0 519.6 519.6" style="enable-background:new 0 0 519.6 519.6;" xml:space="preserve">
<style type="text/css">
	.st0{fill:url(#SVGID_1_);}
</style>
<g>
	<linearGradient id="SVGID_1_" gradientUnits="userSpaceOnUse" x1="0" y1="259.8125" x2="519.625" y2="259.8125">
		<stop  offset="0" style="stop-color:#1245C6"/>
		<stop  offset="1" style="stop-color:#9909B7"/>
	</linearGradient>
	<path class="st0" d="M512.2,388.6L393.1,90.5c-1.5-3.6-4-6.8-7.4-9.4c-3.4-2.7-7-4-10.9-4h-96.8c2.5,0,4.7,0.9,6.6,2.7
		c1.9,1.8,2.9,3.9,3.1,6.4l4.3,54.8c0.2,2.7-0.6,4.9-2.3,6.6c-1.7,1.7-3.8,2.6-6.3,2.6h-47.4c-2.5,0-4.6-0.9-6.3-2.6
		c-1.7-1.7-2.5-3.9-2.3-6.6l4.3-54.8c0.2-2.5,1.2-4.6,3.1-6.4c1.9-1.8,4.1-2.7,6.6-2.7h-96.8c-3.8,0-7.4,1.3-10.9,4
		c-3.4,2.7-5.9,5.8-7.4,9.4L7.4,388.6C2.5,400.4,0,411.4,0,421.7c0,13.9,4.4,20.8,13.1,20.8h201c-2.5,0-4.6-0.9-6.3-2.7
		c-1.7-1.8-2.5-3.9-2.3-6.4l5.7-73.1c0.2-2.5,1.2-4.6,3.1-6.4c1.9-1.8,4.1-2.7,6.6-2.7h77.7c2.5,0,4.7,0.9,6.6,2.7
		c1.9,1.8,3,3.9,3.1,6.4l5.7,73.1c0.2,2.5-0.6,4.6-2.3,6.4c-1.7,1.8-3.8,2.7-6.3,2.7h201c8.8,0,13.1-6.9,13.1-20.8
		C519.6,411.4,517.1,400.4,512.2,388.6z M302.9,288.4c0.2,2.3-0.6,4.2-2.3,5.7c-1.7,1.5-3.7,2.3-6,2.3H225c-2.3,0-4.3-0.8-6-2.3
		c-1.7-1.5-2.5-3.4-2.3-5.7v-1.1l6.9-91.4c0.2-2.5,1.2-4.6,3.1-6.4c1.9-1.8,4.1-2.7,6.6-2.7h53.1c2.5,0,4.7,0.9,6.6,2.7
		c1.9,1.8,3,3.9,3.1,6.4l6.9,91.4L302.9,288.4L302.9,288.4z"/>
</g>
</svg>
