<?xml version="1.0" encoding="UTF-8" standalone="no"?>
<!-- Generator: Adobe Illustrator 16.0.0, SVG Export Plug-In . SVG Version: 6.00 Build 0)  -->

<svg
   xmlns:dc="http://purl.org/dc/elements/1.1/"
   xmlns:cc="http://creativecommons.org/ns#"
   xmlns:rdf="http://www.w3.org/1999/02/22-rdf-syntax-ns#"
   xmlns:svg="http://www.w3.org/2000/svg"
   xmlns="http://www.w3.org/2000/svg"
   xmlns:xlink="http://www.w3.org/1999/xlink"
   xmlns:sodipodi="http://sodipodi.sourceforge.net/DTD/sodipodi-0.dtd"
   xmlns:inkscape="http://www.inkscape.org/namespaces/inkscape"
   version="1.1"
   id="Capa_1"
   x="0px"
   y="0px"
   width="438.529px"
   height="438.529px"
   viewBox="0 0 438.529 438.529"
   style="enable-background:new 0 0 438.529 438.529;"
   xml:space="preserve"
   sodipodi:docname="ic_proceso.svg"
   inkscape:version="0.92.4 (5da689c313, 2019-01-14)"><metadata
   id="metadata41"><rdf:RDF><cc:Work
       rdf:about=""><dc:format>image/svg+xml</dc:format><dc:type
         rdf:resource="http://purl.org/dc/dcmitype/StillImage" /><dc:title></dc:title></cc:Work></rdf:RDF></metadata><defs
   id="defs39"><linearGradient
     inkscape:collect="always"
     id="linearGradient4587"><stop
       style="stop-color:#9909b7;stop-opacity:1;"
       offset="0"
       id="stop4583" /><stop
       style="stop-color:#9909b7;stop-opacity:0.992"
       offset="1"
       id="stop4585" /></linearGradient><linearGradient
     inkscape:collect="always"
     id="linearGradient4567"><stop
       style="stop-color:#000000;stop-opacity:1;"
       offset="0"
       id="stop4563" /><stop
       style="stop-color:#000000;stop-opacity:0;"
       offset="1"
       id="stop4565" /></linearGradient><linearGradient
     inkscape:collect="always"
     xlink:href="#linearGradient4567"
     id="linearGradient4569"
     x1="0"
     y1="219.2645"
     x2="438.52802"
     y2="219.2645"
     gradientUnits="userSpaceOnUse" /><linearGradient
     inkscape:collect="always"
     xlink:href="#linearGradient4587"
     id="linearGradient4589"
     x1="0"
     y1="221.12267"
     x2="440.3862"
     y2="219.2645"
     gradientUnits="userSpaceOnUse" /></defs><sodipodi:namedview
   pagecolor="#ffffff"
   bordercolor="#666666"
   borderopacity="1"
   objecttolerance="10"
   gridtolerance="10"
   guidetolerance="10"
   inkscape:pageopacity="0"
   inkscape:pageshadow="2"
   inkscape:window-width="945"
   inkscape:window-height="642"
   id="namedview37"
   showgrid="false"
   inkscape:zoom="0.53816282"
   inkscape:cx="221.12267"
   inkscape:cy="219.2645"
   inkscape:window-x="314"
   inkscape:window-y="169"
   inkscape:window-maximized="0"
   inkscape:current-layer="Capa_1" />
<g
   id="g4"
   style="opacity:0.98999999;fill:url(#linearGradient4569);fill-opacity:1">
	<path
   d="m 436.25,181.438 c -1.529,-2.002 -3.524,-3.193 -5.995,-3.571 l -52.249,-7.992 c -2.854,-9.137 -6.756,-18.461 -11.704,-27.98 3.422,-4.758 8.559,-11.466 15.41,-20.129 6.851,-8.661 11.703,-14.987 14.561,-18.986 1.523,-2.094 2.279,-4.281 2.279,-6.567 0,-2.663 -0.66,-4.755 -1.998,-6.28 -6.848,-9.708 -22.552,-25.885 -47.106,-48.536 -2.275,-1.903 -4.661,-2.854 -7.132,-2.854 -2.857,0 -5.14,0.855 -6.854,2.567 L 294.923,71.659 C 287.117,67.66 278.552,64.139 269.23,61.094 L 261.236,8.565 C 261.045,6.091 259.949,4.044 257.951,2.426 255.95,0.806 253.623,0 250.954,0 h -63.38 c -5.52,0 -8.947,2.663 -10.278,7.993 -2.475,9.513 -5.236,27.214 -8.28,53.1 -8.947,2.86 -17.607,6.476 -25.981,10.853 L 103.636,41.397 c -2.474,-1.903 -4.948,-2.854 -7.422,-2.854 -4.187,0 -13.179,6.804 -26.979,20.413 -13.8,13.612 -23.169,23.841 -28.122,30.69 -1.714,2.474 -2.568,4.664 -2.568,6.567 0,2.286 0.95,4.57 2.853,6.851 12.751,15.42 22.936,28.549 30.55,39.403 -4.759,8.754 -8.47,17.511 -11.132,26.265 l -53.105,7.992 c -2.093,0.382 -3.9,1.621 -5.424,3.715 C 0.76,182.531 0,184.722 0,187.002 v 63.383 c 0,2.478 0.76,4.709 2.284,6.708 1.524,1.998 3.521,3.195 5.996,3.572 l 52.25,7.71 c 2.663,9.325 6.564,18.743 11.704,28.257 -3.424,4.761 -8.563,11.468 -15.415,20.129 -6.851,8.665 -11.709,14.989 -14.561,18.986 -1.525,2.102 -2.285,4.285 -2.285,6.57 0,2.471 0.666,4.658 1.997,6.561 7.423,10.284 23.125,26.272 47.109,47.969 2.095,2.094 4.475,3.138 7.137,3.138 2.857,0 5.236,-0.852 7.138,-2.563 l 40.259,-30.553 c 7.808,3.997 16.371,7.519 25.697,10.568 l 7.993,52.529 c 0.193,2.471 1.287,4.518 3.283,6.14 1.997,1.622 4.331,2.423 6.995,2.423 h 63.38 c 5.53,0 8.952,-2.662 10.287,-7.994 2.471,-9.514 5.229,-27.213 8.274,-53.098 8.946,-2.858 17.607,-6.476 25.981,-10.855 l 39.402,30.84 c 2.663,1.712 5.141,2.563 7.42,2.563 4.186,0 13.131,-6.752 26.833,-20.27 13.709,-13.511 23.13,-23.79 28.264,-30.837 1.711,-1.902 2.569,-4.09 2.569,-6.561 0,-2.478 -0.947,-4.862 -2.857,-7.139 -13.698,-16.754 -23.883,-29.882 -30.546,-39.402 3.806,-7.043 7.519,-15.701 11.136,-25.98 l 52.817,-7.988 c 2.279,-0.383 4.189,-1.622 5.708,-3.716 1.523,-2.098 2.279,-4.288 2.279,-6.571 v -63.376 c 0.005,-2.474 -0.751,-4.707 -2.278,-6.707 z m -165.304,89.501 c -14.271,14.277 -31.497,21.416 -51.676,21.416 -20.177,0 -37.401,-7.139 -51.678,-21.416 -14.272,-14.271 -21.411,-31.498 -21.411,-51.673 0,-20.177 7.135,-37.401 21.411,-51.678 14.277,-14.272 31.504,-21.411 51.678,-21.411 20.179,0 37.406,7.139 51.676,21.411 14.274,14.277 21.413,31.501 21.413,51.678 0,20.175 -7.138,37.403 -21.413,51.673 z"
   id="path2"
   inkscape:connector-curvature="0"
   style="fill:url(#linearGradient4589);fill-opacity:1;opacity:0.99" />
</g>
<g
   id="g6">
</g>
<g
   id="g8">
</g>
<g
   id="g10">
</g>
<g
   id="g12">
</g>
<g
   id="g14">
</g>
<g
   id="g16">
</g>
<g
   id="g18">
</g>
<g
   id="g20">
</g>
<g
   id="g22">
</g>
<g
   id="g24">
</g>
<g
   id="g26">
</g>
<g
   id="g28">
</g>
<g
   id="g30">
</g>
<g
   id="g32">
</g>
<g
   id="g34">
</g>
</svg>