<?xml version="1.0" encoding="UTF-8" standalone="no"?>
<!-- Generator: Adobe Illustrator 23.0.3, SVG Export Plug-In . SVG Version: 6.00 Build 0)  -->

<svg
   xmlns:dc="http://purl.org/dc/elements/1.1/"
   xmlns:cc="http://creativecommons.org/ns#"
   xmlns:rdf="http://www.w3.org/1999/02/22-rdf-syntax-ns#"
   xmlns:svg="http://www.w3.org/2000/svg"
   xmlns="http://www.w3.org/2000/svg"
   xmlns:sodipodi="http://sodipodi.sourceforge.net/DTD/sodipodi-0.dtd"
   xmlns:inkscape="http://www.inkscape.org/namespaces/inkscape"
   version="1.1"
   id="Capa_1"
   x="0px"
   y="0px"
   viewBox="0 0 511.6 511.6"
   style="enable-background:new 0 0 511.6 511.6;"
   xml:space="preserve"
   sodipodi:docname="ic_preventa_unir.svg"
   inkscape:version="0.92.4 (5da689c313, 2019-01-14)"><metadata
   id="metadata18"><rdf:RDF><cc:Work
       rdf:about=""><dc:format>image/svg+xml</dc:format><dc:type
         rdf:resource="http://purl.org/dc/dcmitype/StillImage" /><dc:title></dc:title></cc:Work></rdf:RDF></metadata><defs
   id="defs16" /><sodipodi:namedview
   pagecolor="#ffffff"
   bordercolor="#666666"
   borderopacity="1"
   objecttolerance="10"
   gridtolerance="10"
   guidetolerance="10"
   inkscape:pageopacity="0"
   inkscape:pageshadow="2"
   inkscape:window-width="718"
   inkscape:window-height="480"
   id="namedview14"
   showgrid="false"
   inkscape:zoom="0.46129788"
   inkscape:cx="255.8"
   inkscape:cy="255.8"
   inkscape:window-x="152"
   inkscape:window-y="216"
   inkscape:window-maximized="0"
   inkscape:current-layer="Capa_1" />
<style
   type="text/css"
   id="style2">
	.st0{fill:url(#SVGID_1_);}
</style>
<g
   id="g11">
	<linearGradient
   id="SVGID_1_"
   gradientUnits="userSpaceOnUse"
   x1="0"
   y1="255.8125"
   x2="511.627"
   y2="255.8125">
		<stop
   offset="0"
   style="stop-color:#1245C6"
   id="stop4" />
		<stop
   offset="1"
   style="stop-color:#9909B7"
   id="stop6" />
	</linearGradient>
	<path
   class="st0"
   d="M503.6,336.9c-5.3-5.3-11.8-8-19.4-8h-27.4v-54.8c0-9.9-3.6-18.5-10.8-25.7c-7.2-7.2-15.8-10.9-25.7-10.9   H274.1v-54.8h27.4c7.6,0,14.1-2.7,19.4-8c5.3-5.3,8-11.8,8-19.4V64c0-7.6-2.7-14.1-8-19.4c-5.3-5.3-11.8-8-19.4-8h-91.4   c-7.6,0-14.1,2.7-19.4,8c-5.3,5.3-8,11.8-8,19.4v91.4c0,7.6,2.7,14.1,8,19.4c5.3,5.3,11.8,8,19.4,8h27.4v54.8H91.4   c-9.9,0-18.5,3.6-25.7,10.9c-7.2,7.2-10.8,15.8-10.8,25.7v54.8H27.4c-7.6,0-14.1,2.7-19.4,8c-5.3,5.3-8,11.8-8,19.4v91.4   c0,7.6,2.7,14.1,8,19.4c5.3,5.3,11.8,8,19.4,8h91.4c7.6,0,14.1-2.7,19.4-8c5.3-5.3,8-11.8,8-19.4v-91.4c0-7.6-2.7-14.1-8-19.4   c-5.3-5.3-11.8-8-19.4-8H91.4v-54.8h146.2v54.8h-27.4c-7.6,0-14.1,2.7-19.4,8c-5.3,5.3-8,11.8-8,19.4v91.4c0,7.6,2.7,14.1,8,19.4   c5.3,5.3,11.8,8,19.4,8h91.4c7.6,0,14.1-2.7,19.4-8c5.3-5.3,8-11.8,8-19.4v-91.4c0-7.6-2.7-14.1-8-19.4c-5.3-5.3-11.8-8-19.4-8   h-27.4v-54.8h146.2v54.8h-27.4c-7.6,0-14.1,2.7-19.4,8c-5.3,5.3-8,11.8-8,19.4v91.4c0,7.6,2.7,14.1,8,19.4c5.3,5.3,11.8,8,19.4,8   h91.4c7.6,0,14.1-2.7,19.4-8c5.3-5.3,8-11.8,8-19.4v-91.4C511.6,348.7,509,342.2,503.6,336.9z"
   id="path9" />
</g>
</svg>