<?xml version="1.0" encoding="UTF-8" standalone="no"?> <svg xmlns="http://www.w3.org/2000/svg" viewBox="0 0 64 64"><defs><style>.cls-1{fill:#999;}.cls-1,.cls-2,.cls-5{stroke:#54596e;stroke-linecap:round;stroke-linejoin:round;stroke-width:2px;}.cls-2{fill:#d8d8d8;}.cls-3{fill:#55596c;opacity:0.2;}.cls-4{fill:#54596e;}.cls-5{fill:none;}</style></defs><title>weight</title><g id="weight"><path class="cls-1" d="M7.52,18H14a0,0,0,0,1,0,0V49a0,0,0,0,1,0,0H7.52A2.52,2.52,0,0,1,5,46.48v-26A2.52,2.52,0,0,1,7.52,18Z"/><path class="cls-2" d="M14,18h6.48A2.52,2.52,0,0,1,23,20.52v26A2.52,2.52,0,0,1,20.48,49H14a0,0,0,0,1,0,0V18a0,0,0,0,1,0,0Z"/><path class="cls-2" d="M43.52,18H50a0,0,0,0,1,0,0V49a0,0,0,0,1,0,0H43.52A2.52,2.52,0,0,1,41,46.48v-26A2.52,2.52,0,0,1,43.52,18Z"/><path class="cls-1" d="M50,18h6.48A2.52,2.52,0,0,1,59,20.52v26A2.52,2.52,0,0,1,56.48,49H50a0,0,0,0,1,0,0V18A0,0,0,0,1,50,18Z"/><path class="cls-3" d="M20.48,43h-13A2.52,2.52,0,0,1,5,40.48v6A2.52,2.52,0,0,0,7.52,49h13A2.52,2.52,0,0,0,23,46.48v-6A2.52,2.52,0,0,1,20.48,43Z"/><path class="cls-3" d="M56.48,43h-13A2.52,2.52,0,0,1,41,40.48v6A2.52,2.52,0,0,0,43.52,49h13A2.52,2.52,0,0,0,59,46.48v-6A2.52,2.52,0,0,1,56.48,43Z"/><path class="cls-1" d="M5,29H5a0,0,0,0,1,0,0v9a0,0,0,0,1,0,0H5a4,4,0,0,1-4-4V33a4,4,0,0,1,4-4Z"/><path class="cls-1" d="M63,29h0a0,0,0,0,1,0,0v9a0,0,0,0,1,0,0h0a4,4,0,0,1-4-4V33a4,4,0,0,1,4-4Z" transform="translate(122 67) rotate(180)"/><rect class="cls-1" x="23" y="27" width="18" height="14"/><circle class="cls-4" cx="26.5" cy="31.5" r="1.5"/><circle class="cls-4" cx="37.5" cy="31.5" r="1.5"/><path class="cls-5" d="M28.24,36.51A5.62,5.62,0,0,0,36,36.37"/></g></svg>