<?xml version="1.0" encoding="UTF-8" standalone="no"?>
<!-- Generator: Adobe Illustrator 16.0.0, SVG Export Plug-In . SVG Version: 6.00 Build 0)  -->

<svg
   xmlns:dc="http://purl.org/dc/elements/1.1/"
   xmlns:cc="http://creativecommons.org/ns#"
   xmlns:rdf="http://www.w3.org/1999/02/22-rdf-syntax-ns#"
   xmlns:svg="http://www.w3.org/2000/svg"
   xmlns="http://www.w3.org/2000/svg"
   xmlns:xlink="http://www.w3.org/1999/xlink"
   xmlns:sodipodi="http://sodipodi.sourceforge.net/DTD/sodipodi-0.dtd"
   xmlns:inkscape="http://www.inkscape.org/namespaces/inkscape"
   version="1.1"
   id="Capa_1"
   x="0px"
   y="0px"
   width="438.821px"
   height="438.82px"
   viewBox="0 0 438.821 438.82"
   style="enable-background:new 0 0 438.821 438.82;"
   xml:space="preserve"
   sodipodi:docname="ic_bonificaciones.svg"
   inkscape:version="0.92.4 (5da689c313, 2019-01-14)"><metadata
   id="metadata41"><rdf:RDF><cc:Work
       rdf:about=""><dc:format>image/svg+xml</dc:format><dc:type
         rdf:resource="http://purl.org/dc/dcmitype/StillImage" /><dc:title></dc:title></cc:Work></rdf:RDF></metadata><defs
   id="defs39"><linearGradient
     inkscape:collect="always"
     id="linearGradient852"><stop
       style="stop-color:#9909b7;stop-opacity:1"
       offset="0"
       id="stop848" /><stop
       style="stop-color:#9909b7;stop-opacity:0.99"
       offset="1"
       id="stop850" /></linearGradient><linearGradient
     inkscape:collect="always"
     xlink:href="#linearGradient852"
     id="linearGradient854"
     x1="0.0011093127"
     y1="219.41004"
     x2="438.82148"
     y2="219.41004"
     gradientUnits="userSpaceOnUse" /></defs><sodipodi:namedview
   pagecolor="#ffffff"
   bordercolor="#666666"
   borderopacity="1"
   objecttolerance="10"
   gridtolerance="10"
   guidetolerance="10"
   inkscape:pageopacity="0"
   inkscape:pageshadow="2"
   inkscape:window-width="718"
   inkscape:window-height="480"
   id="namedview37"
   showgrid="false"
   inkscape:zoom="0.53780593"
   inkscape:cx="221.26991"
   inkscape:cy="219.41"
   inkscape:window-x="209"
   inkscape:window-y="204"
   inkscape:window-maximized="0"
   inkscape:current-layer="Capa_1" />
<g
   id="g4"
   style="fill:#9909b7;fill-opacity:1">
	<path
   d="m 432.39,257.938 -39.393,-38.546 39.393,-38.544 c 5.715,-5.33 7.617,-11.991 5.715,-19.985 -2.283,-7.804 -7.231,-12.657 -14.849,-14.56 l -53.674,-13.706 15.133,-53.104 c 2.279,-7.801 0.479,-14.467 -5.427,-19.985 -5.517,-5.902 -12.18,-7.71 -19.986,-5.426 L 306.204,69.215 292.495,15.54 C 290.592,7.734 285.746,2.882 277.944,0.979 270.134,-1.117 263.474,0.695 257.958,6.403 L 219.411,46.09 180.868,6.404 c -5.52,-5.9 -12.181,-7.708 -19.985,-5.424 -7.804,1.903 -12.657,6.755 -14.56,14.561 L 132.617,69.216 79.514,54.083 c -7.804,-2.285 -14.465,-0.476 -19.985,5.426 -5.901,5.518 -7.71,12.179 -5.424,19.985 l 15.131,53.104 -53.675,13.706 c -7.613,1.903 -12.563,6.755 -14.845,14.56 -1.906,7.994 0,14.655 5.709,19.985 l 39.398,38.544 -39.398,38.545 c -5.709,5.328 -7.612,11.991 -5.709,19.981 2.282,7.806 7.232,12.658 14.845,14.562 l 53.675,13.702 -15.131,53.105 c -2.286,7.803 -0.477,14.462 5.424,19.985 5.52,5.899 12.181,7.703 19.985,5.421 l 53.104,-15.126 13.706,53.673 c 1.903,7.803 6.755,12.751 14.56,14.842 7.994,1.902 14.656,0 19.985,-5.708 l 38.544,-39.399 38.547,39.402 c 3.806,4.183 8.658,6.276 14.555,6.276 1.338,0 3.142,-0.191 5.432,-0.567 7.802,-2.286 12.651,-7.234 14.554,-14.846 l 13.702,-53.67 53.102,15.13 c 7.807,2.278 14.47,0.472 19.986,-5.428 5.902,-5.523 7.71,-12.183 5.427,-19.985 l -15.129,-53.105 53.67,-13.699 c 7.621,-1.902 12.565,-6.759 14.849,-14.561 1.903,-7.993 0,-14.656 -5.718,-19.985 z"
   id="path2"
   inkscape:connector-curvature="0"
   style="fill:url(#linearGradient854);fill-opacity:1" />
</g>
<g
   id="g6">
</g>
<g
   id="g8">
</g>
<g
   id="g10">
</g>
<g
   id="g12">
</g>
<g
   id="g14">
</g>
<g
   id="g16">
</g>
<g
   id="g18">
</g>
<g
   id="g20">
</g>
<g
   id="g22">
</g>
<g
   id="g24">
</g>
<g
   id="g26">
</g>
<g
   id="g28">
</g>
<g
   id="g30">
</g>
<g
   id="g32">
</g>
<g
   id="g34">
</g>
</svg>