<?xml version="1.0" encoding="utf-8"?>
<!-- Generator: Adobe Illustrator 23.0.3, SVG Export Plug-In . SVG Version: 6.00 Build 0)  -->
<svg version="1.1" id="Capa_1" xmlns="http://www.w3.org/2000/svg" xmlns:xlink="http://www.w3.org/1999/xlink" x="0px" y="0px"
	 viewBox="0 0 511.6 511.6" style="enable-background:new 0 0 511.6 511.6;" xml:space="preserve">
<style type="text/css">
	.st0{fill:url(#SVGID_1_);}
</style>
<g>
	<linearGradient id="SVGID_1_" gradientUnits="userSpaceOnUse" x1="18.273" y1="255.815" x2="493.356" y2="255.815">
		<stop  offset="0" style="stop-color:#1245C6"/>
		<stop  offset="1" style="stop-color:#9909B7"/>
	</linearGradient>
	<path class="st0" d="M411.4,288.5c-18.5-45-27.7-92.5-27.7-142.3c0-31.4-9.1-56.3-27.4-74.8C338,52.9,312.9,41.8,280.9,38
		c1.5-3.4,2.3-6.9,2.3-10.6c0-7.6-2.7-14.1-8-19.4c-5.3-5.3-11.8-8-19.4-8c-7.6,0-14.1,2.7-19.4,8c-5.3,5.3-8,11.8-8,19.4
		c0,3.6,0.8,7.1,2.3,10.6c-32,3.8-57.1,14.9-75.4,33.4c-18.3,18.5-27.4,43.4-27.4,74.8c0,49.9-9.2,97.3-27.7,142.3
		c-18.5,45-45.8,82.8-81.9,113.5c0,9.9,3.6,18.5,10.9,25.7c7.2,7.2,15.8,10.9,25.7,10.9h127.9c0,20.2,7.1,37.4,21.4,51.7
		c14.3,14.3,31.5,21.4,51.7,21.4c20.2,0,37.4-7.1,51.7-21.4c14.3-14.3,21.4-31.5,21.4-51.7h127.9c9.9,0,18.5-3.6,25.7-10.9
		c7.2-7.2,10.9-15.8,10.9-25.7C457.2,371.4,429.9,333.5,411.4,288.5z M255.8,488.8c-13.9,0-25.7-4.9-35.5-14.7
		c-9.8-9.8-14.7-21.7-14.7-35.6c0-3,1.5-4.6,4.6-4.6c3,0,4.6,1.5,4.6,4.6c0,11.2,4,20.9,12.1,29c8.1,8.1,17.7,12.1,29,12.1
		c3,0,4.6,1.5,4.6,4.6C260.4,487.3,258.9,488.8,255.8,488.8z M70.5,402c31.2-34.5,54.7-73.6,70.4-117.5s23.6-90,23.6-138.3
		c0-48.7,30.5-73.1,91.4-73.1c60.9,0,91.4,24.4,91.4,73.1c0,48.3,7.9,94.5,23.6,138.3c15.7,43.9,39.2,83,70.4,117.5H70.5z"/>
</g>
</svg>
