<?xml version="1.0" encoding="utf-8"?>
<!-- Generator: Adobe Illustrator 23.0.3, SVG Export Plug-In . SVG Version: 6.00 Build 0)  -->
<svg version="1.1" id="Capa_1" xmlns="http://www.w3.org/2000/svg" xmlns:xlink="http://www.w3.org/1999/xlink" x="0px" y="0px"
	 viewBox="0 0 438.5 438.5" style="enable-background:new 0 0 438.5 438.5;" xml:space="preserve">
<style type="text/css">
	.st0{fill:url(#SVGID_1_);}
</style>
<g>
	<linearGradient id="SVGID_1_" gradientUnits="userSpaceOnUse" x1="0" y1="219.267" x2="438.532" y2="219.267">
		<stop  offset="0" style="stop-color:#1245C6"/>
		<stop  offset="1" style="stop-color:#9909B7"/>
	</linearGradient>
	<path class="st0" d="M409.1,109.2c-19.6-33.6-46.2-60.2-79.8-79.8C295.7,9.8,259.1,0,219.3,0c-39.8,0-76.5,9.8-110.1,29.4
		C75.6,49,49,75.6,29.4,109.2C9.8,142.8,0,179.5,0,219.3c0,39.8,9.8,76.5,29.4,110.1c19.6,33.6,46.2,60.2,79.8,79.8
		c33.6,19.6,70.3,29.4,110.1,29.4s76.5-9.8,110.1-29.4c33.6-19.6,60.2-46.2,79.8-79.8c19.6-33.6,29.4-70.3,29.4-110.1
		C438.5,179.5,428.7,142.8,409.1,109.2z M255.8,356.3c0,2.7-0.9,4.9-2.6,6.6c-1.7,1.7-3.9,2.6-6.6,2.6h-54.8c-2.7,0-4.9-0.9-6.6-2.6
		c-1.7-1.7-2.6-3.9-2.6-6.6v-54.8c0-2.7,0.9-4.9,2.6-6.6c1.7-1.7,3.9-2.6,6.6-2.6h54.8c2.7,0,4.9,0.9,6.6,2.6
		c1.7,1.7,2.6,3.9,2.6,6.6V356.3z M325.3,187.6c-2.4,7-5,12.8-8,17.3c-2.9,4.5-7.2,9-12.7,13.7c-5.5,4.7-9.9,8-13.1,10
		c-3.2,2-7.9,4.7-14,8.1c-6.3,3.6-11.5,8.3-15.6,14.1c-4.1,5.8-6.1,10.5-6.1,14.1c0,2.7-0.9,4.9-2.6,6.6c-1.7,1.7-3.9,2.6-6.6,2.6
		h-54.8c-2.7,0-4.9-0.9-6.6-2.6c-1.7-1.7-2.6-3.9-2.6-6.6v-10.3c0-12.8,5-24.7,15-35.8c10-11.1,21-19.4,33-24.7
		c9.1-4.2,15.6-8.5,19.4-12.8c3.8-4.4,5.7-10.2,5.7-17.4c0-6.3-3.6-11.9-10.7-16.8c-7.1-4.9-15.3-7.4-24.4-7.4
		c-9.9,0-18.1,2.3-24.6,6.9c-6.3,4.6-14.5,13.3-24.6,26.3c-1.7,2.3-4.1,3.4-7.1,3.4c-2.3,0-4.1-0.6-5.4-1.7l-37.7-28.6
		c-4.4-3.4-5.1-7.4-2.3-12c24.4-40.5,59.7-60.8,105.9-60.8c16.6,0,32.7,3.9,48.5,11.7c15.8,7.8,29,18.8,39.5,33.1
		c10.6,14.3,15.8,29.8,15.8,46.5C328.9,172.8,327.7,180.5,325.3,187.6z"/>
</g>
</svg>
