<?xml version="1.0" encoding="UTF-8" standalone="no"?>
<!-- Generator: Adobe Illustrator 23.0.3, SVG Export Plug-In . SVG Version: 6.00 Build 0)  -->

<svg
   xmlns:dc="http://purl.org/dc/elements/1.1/"
   xmlns:cc="http://creativecommons.org/ns#"
   xmlns:rdf="http://www.w3.org/1999/02/22-rdf-syntax-ns#"
   xmlns:svg="http://www.w3.org/2000/svg"
   xmlns="http://www.w3.org/2000/svg"
   xmlns:sodipodi="http://sodipodi.sourceforge.net/DTD/sodipodi-0.dtd"
   xmlns:inkscape="http://www.inkscape.org/namespaces/inkscape"
   version="1.1"
   id="Capa_1"
   x="0px"
   y="0px"
   viewBox="0 0 444.8 444.8"
   style="enable-background:new 0 0 444.8 444.8;"
   xml:space="preserve"
   sodipodi:docname="ic_anterior.svg"
   inkscape:version="0.92.4 (5da689c313, 2019-01-14)"><metadata
   id="metadata18"><rdf:RDF><cc:Work
       rdf:about=""><dc:format>image/svg+xml</dc:format><dc:type
         rdf:resource="http://purl.org/dc/dcmitype/StillImage" /><dc:title></dc:title></cc:Work></rdf:RDF></metadata><defs
   id="defs16" /><sodipodi:namedview
   pagecolor="#ffffff"
   bordercolor="#666666"
   borderopacity="1"
   objecttolerance="10"
   gridtolerance="10"
   guidetolerance="10"
   inkscape:pageopacity="0"
   inkscape:pageshadow="2"
   inkscape:window-width="718"
   inkscape:window-height="480"
   id="namedview14"
   showgrid="false"
   inkscape:zoom="0.53057555"
   inkscape:cx="224.28474"
   inkscape:cy="222.39999"
   inkscape:window-x="258"
   inkscape:window-y="238"
   inkscape:window-maximized="0"
   inkscape:current-layer="Capa_1" />
<style
   type="text/css"
   id="style2">
	.st0{fill:url(#SVGID_1_);}
</style>
<g
   id="g11"
   transform="rotate(-179.21666,222.4,222.45)">
	<linearGradient
   id="SVGID_1_"
   gradientUnits="userSpaceOnUse"
   x1="82.222"
   y1="222.409"
   x2="362.59601"
   y2="222.409">
		<stop
   offset="0"
   style="stop-color:#1245C6"
   id="stop4" />
		<stop
   offset="1"
   style="stop-color:#9909B7"
   id="stop6" />
	</linearGradient>
	<path
   class="st0"
   d="M 352,196.7 165.9,10.8 C 159,3.6 150.5,0 140.2,0 129.9,0 121.4,3.6 114.5,10.8 L 92.8,32.3 c -7,7 -10.6,15.6 -10.6,25.7 0,9.9 3.5,18.6 10.6,26 L 231.6,222.5 92.8,361.2 c -7,7 -10.6,15.6 -10.6,25.7 0,9.9 3.5,18.6 10.6,26 l 21.7,21.4 c 7,7 15.6,10.6 25.7,10.6 10.1,0 18.7,-3.5 25.7,-10.6 L 352,248.4 c 7,-7.4 10.6,-16.1 10.6,-26 0,-10.1 -3.5,-18.6 -10.6,-25.7 z"
   id="path9"
   inkscape:connector-curvature="0"
   style="fill:url(#SVGID_1_)" />
</g>
</svg>