<?xml version="1.0" encoding="utf-8"?>
<!-- Generator: Adobe Illustrator 23.0.3, SVG Export Plug-In . SVG Version: 6.00 Build 0)  -->
<svg version="1.1" id="Capa_1" xmlns="http://www.w3.org/2000/svg" xmlns:xlink="http://www.w3.org/1999/xlink" x="0px" y="0px"
	 viewBox="0 0 436.3 436.3" style="enable-background:new 0 0 436.3 436.3;" xml:space="preserve">
<style type="text/css">
	.st0{fill:url(#SVGID_1_);}
</style>
<g>
	<linearGradient id="SVGID_1_" gradientUnits="userSpaceOnUse" x1="18.271" y1="218.1285" x2="417.985" y2="218.1285">
		<stop  offset="0" style="stop-color:#1245C6"/>
		<stop  offset="1" style="stop-color:#9909B7"/>
	</linearGradient>
	<path class="st0" d="M389.4,290.7L223.5,124.8c-11.6-12-25.8-18-42.5-18c-15.6,0-28.8,5.4-39.7,16.3
		c-10.9,10.8-16.3,24.1-16.3,39.7c0,16.8,6,30.9,18,42.5l117.1,117.1c1.9,1.9,4,2.9,6.3,2.9c3,0,7.5-3,13.4-8.9
		c5.9-5.9,8.8-10.4,8.8-13.4c0-2.3-0.9-4.4-2.9-6.3L168.7,179.6c-4.8-5.1-7.1-10.8-7.1-16.8c0-5.5,1.8-10.1,5.4-13.7
		c3.6-3.6,8.2-5.4,13.7-5.4c6.5,0,12.2,2.3,17.1,6.8l165.9,165.9c12,12,18,25.8,18,41.4c0,12.2-4,22.3-12,30.3c-8,8-18.1,12-30.3,12
		c-15.6,0-29.4-6-41.4-18L76.5,160.2c-14.5-14.5-21.7-31.7-21.7-51.7c0-20.2,6.9-37.4,20.8-51.7c13.9-14.3,30.9-21.4,51.1-21.4
		c19.4,0,36.6,7.3,51.7,22l173,173.3c1.9,1.9,4.1,2.9,6.6,2.9c3,0,7.5-2.9,13.3-8.7c5.8-5.8,8.7-10.2,8.7-13.3
		c0-2.3-0.9-4.4-2.8-6.3l-172.7-173C182.5,10.8,156.6,0,126.5,0C96.2,0,70.6,10.6,49.7,31.7c-20.9,21.1-31.4,46.8-31.4,77.1
		c0,29.7,10.8,55.5,32.3,77.4l221.8,221.6c19,19,41.4,28.5,67.1,28.5c22.3,0,40.9-7.5,56-22.6c15-15,22.6-33.7,22.6-56
		C418,331.7,408.5,309.3,389.4,290.7z"/>
</g>
</svg>
