<?xml version="1.0" encoding="utf-8"?>
<!-- Generator: Adobe Illustrator 23.0.3, SVG Export Plug-In . SVG Version: 6.00 Build 0)  -->
<svg version="1.1" id="Capa_1" xmlns="http://www.w3.org/2000/svg" xmlns:xlink="http://www.w3.org/1999/xlink" x="0px" y="0px"
	 viewBox="0 0 548.2 548.2" style="enable-background:new 0 0 548.2 548.2;" xml:space="preserve">
<style type="text/css">
	.st0{fill:url(#SVGID_1_);}
</style>
<linearGradient id="SVGID_1_" gradientUnits="userSpaceOnUse" x1="0" y1="274.088" x2="548.176" y2="274.088">
	<stop  offset="0" style="stop-color:#1245C6"/>
	<stop  offset="1" style="stop-color:#9909B7"/>
</linearGradient>
<path class="st0" d="M542.7,96.8c-3.6-3.6-7.9-5.4-12.8-5.4H18.3c-4.9,0-9.2,1.8-12.9,5.4c-3.6,3.6-5.4,7.9-5.4,12.8v328.9
	c0,4.9,1.8,9.2,5.4,12.8c3.6,3.6,7.9,5.4,12.9,5.4h511.6c4.9,0,9.2-1.8,12.8-5.4c3.6-3.6,5.4-7.9,5.4-12.8V109.6
	C548.2,104.7,546.4,100.4,542.7,96.8z M511.6,347.2c-20.2,0-37.4,7.1-51.7,21.4c-14.3,14.3-21.4,31.5-21.4,51.7H109.6
	c0-20.2-7.1-37.4-21.4-51.7c-14.3-14.3-31.5-21.4-51.7-21.4V201c20.2,0,37.4-7.1,51.7-21.4c14.3-14.3,21.4-31.5,21.4-51.7h328.9
	c0,20.2,7.1,37.4,21.4,51.7c14.3,14.3,31.5,21.4,51.7,21.4L511.6,347.2L511.6,347.2z M342.5,195.3c-7.3-11.8-17-21.4-29-28.8
	c-12-7.4-25.1-11.1-39.4-11.1c-14.3,0-27.4,3.7-39.4,11.1c-12,7.4-21.7,17-29,28.8c-7.3,11.8-13,24.6-17,38.3c-4,13.7-6,27.2-6,40.5
	c0,13.3,2,26.8,6,40.5c4,13.7,9.7,26.5,17,38.3c7.3,11.8,17,21.4,29,28.8c12,7.4,25.1,11.1,39.4,11.1s27.4-3.7,39.4-11.1
	c12-7.4,21.7-17,29-28.8c7.3-11.8,13-24.6,17-38.3c4-13.7,6-27.2,6-40.5c0-13.3-2-26.8-6-40.5C355.5,219.8,349.8,207.1,342.5,195.3z
	 M328.9,347.2H219.3v-27.4h36.5v-82.2h-0.6c-2.5,3.8-7.7,9.2-15.7,16.3l-22-22.8l42.3-39.1h32.6v127.9h36.5V347.2z"/>
</svg>
