<?xml version="1.0" encoding="utf-8"?>
<!-- Generator: Adobe Illustrator 23.0.3, SVG Export Plug-In . SVG Version: 6.00 Build 0)  -->
<svg version="1.1" id="Capa_1" xmlns="http://www.w3.org/2000/svg" xmlns:xlink="http://www.w3.org/1999/xlink" x="0px" y="0px"
	 viewBox="0 0 339.2 339.2" style="enable-background:new 0 0 339.2 339.2;" xml:space="preserve">
<style type="text/css">
	.st0{fill:url(#SVGID_1_);}
</style>
<linearGradient id="SVGID_1_" gradientUnits="userSpaceOnUse" x1="0" y1="169.5885" x2="339.177" y2="169.5885">
	<stop  offset="0" style="stop-color:#1245C6"/>
	<stop  offset="1" style="stop-color:#9909B7"/>
</linearGradient>
<path class="st0" d="M247.2,169.6l83.9-83.9c5.3-5.3,8-11.8,8-19.4c0-7.6-2.7-14.1-8-19.4L292.4,8c-5.3-5.3-11.8-8-19.4-8
	c-7.6,0-14.1,2.7-19.4,8l-83.9,83.9L85.7,8c-5.3-5.3-11.8-8-19.4-8c-7.6,0-14.1,2.7-19.4,8L8,46.8c-5.3,5.3-8,11.8-8,19.4
	c0,7.6,2.7,14.1,8,19.4l83.9,83.9L8,253.5c-5.3,5.3-8,11.8-8,19.4c0,7.6,2.7,14.1,8,19.4l38.8,38.8c5.3,5.3,11.8,8,19.4,8
	c7.6,0,14.1-2.7,19.4-8l83.9-83.9l83.9,83.9c5.3,5.3,11.8,8,19.4,8c7.6,0,14.1-2.7,19.4-8l38.8-38.8c5.3-5.3,8-11.8,8-19.4
	c0-7.6-2.7-14.1-8-19.4L247.2,169.6z"/>
</svg>
