<?xml version="1.0" encoding="utf-8"?>
<!-- Generator: Adobe Illustrator 23.0.3, SVG Export Plug-In . SVG Version: 6.00 Build 0)  -->
<svg version="1.1" id="Capa_1" xmlns="http://www.w3.org/2000/svg" xmlns:xlink="http://www.w3.org/1999/xlink" x="0px" y="0px"
	 viewBox="0 0 469.1 469.1" style="enable-background:new 0 0 469.1 469.1;" xml:space="preserve">
<style type="text/css">
	.st0{fill:url(#SVGID_1_);}
</style>
<linearGradient id="SVGID_1_" gradientUnits="userSpaceOnUse" x1="0.288" y1="234.545" x2="468.802" y2="234.545">
	<stop  offset="0" style="stop-color:#1245C6"/>
	<stop  offset="1" style="stop-color:#9909B7"/>
</linearGradient>
<path class="st0" d="M205.6,181.6L11.1,376c-7.2,7.2-10.9,15.9-10.9,26c0,10.3,3.6,18.8,10.9,25.7l30.3,30.8
	c7.4,7,16.1,10.6,26,10.6c10.1,0,18.7-3.5,25.7-10.6l194.7-194.7c-18.6-7.4-35.2-18.3-49.5-32.7C223.9,216.8,213,200.2,205.6,181.6z
	 M98.5,396.6c-3.6,3.6-7.9,5.4-12.8,5.4c-4.9,0-9.2-1.8-12.8-5.4c-3.6-3.6-5.4-7.9-5.4-12.8c0-4.9,1.8-9.2,5.4-12.9
	c3.6-3.6,7.9-5.4,12.8-5.4c4.9,0,9.2,1.8,12.8,5.4c3.6,3.6,5.4,7.9,5.4,12.9C103.9,388.7,102.1,393,98.5,396.6z M466.4,132.5
	c-1.6-1.9-3.9-2.9-6.7-2.9c-1.7,0-8.4,3.4-20.1,10.1c-11.7,6.8-24.6,14.5-38.7,23.1c-14.1,8.7-21.6,13.3-22.6,13.9l-55.1-30.6v-64
	L406.8,34c3-2.1,4.6-4.8,4.6-8c0-3.2-1.5-5.9-4.6-8c-8.4-5.7-18.6-10.1-30.7-13.3C364.1,1.6,352.5,0,341.5,0
	c-35.2,0-65.3,12.5-90.4,37.5c-25,25-37.5,55.1-37.5,90.4c0,35.2,12.5,65.3,37.5,90.4c25,25,55.1,37.5,90.4,37.5
	c26.8,0,51.4-8,73.8-23.8c22.4-15.9,38-36.6,47-62.1c4.4-12.8,6.6-22.8,6.6-30.3C468.8,136.8,468,134.4,466.4,132.5z"/>
</svg>
