<?xml version="1.0" encoding="utf-8"?>
<!-- Generator: Adobe Illustrator 23.0.3, SVG Export Plug-In . SVG Version: 6.00 Build 0)  -->
<svg version="1.1" id="Capa_1" xmlns="http://www.w3.org/2000/svg" xmlns:xlink="http://www.w3.org/1999/xlink" x="0px" y="0px"
	 viewBox="0 0 511.6 511.6" style="enable-background:new 0 0 511.6 511.6;" xml:space="preserve">
<style type="text/css">
	.st0{fill:url(#SVGID_1_);}
</style>
<g>
	<linearGradient id="SVGID_1_" gradientUnits="userSpaceOnUse" x1="0" y1="255.8135" x2="511.625" y2="255.8135">
		<stop  offset="0" style="stop-color:#1245C6"/>
		<stop  offset="1" style="stop-color:#9909B7"/>
	</linearGradient>
	<path class="st0" d="M505.9,267.2c-3.8-9.1-8.4-16.4-13.7-21.7L375.7,129.1c-2.9-2.9-6.3-5.5-10.3-8V27.4c0-7.6-2.7-14.1-8-19.4
		c-5.3-5.3-11.8-8-19.4-8H27.4C19.8,0,13.3,2.7,8,8c-5.3,5.3-8,11.8-8,19.4v383.7c0,7.6,2.7,14.1,8,19.4c5.3,5.3,11.8,8,19.4,8
		h155.3v45.7c0,7.6,2.7,14.1,8,19.4c5.3,5.3,11.8,8,19.4,8h274.1c7.6,0,14.1-2.7,19.4-8c5.3-5.3,8-11.8,8-19.4V292.4
		C511.6,284.7,509.7,276.4,505.9,267.2z M365.4,170.4l85.4,85.4h-85.4L365.4,170.4L365.4,170.4z M82.2,73.1c-2.5,0-4.6-0.9-6.4-2.7
		c-1.8-1.8-2.7-3.9-2.7-6.4V45.7c0-2.5,0.9-4.6,2.7-6.4c1.8-1.8,3.9-2.7,6.4-2.7h201c2.5,0,4.6,0.9,6.4,2.7c1.8,1.8,2.7,3.9,2.7,6.4
		V64c0,2.5-0.9,4.6-2.7,6.4c-1.8,1.8-3.9,2.7-6.4,2.7C283.2,73.1,82.2,73.1,82.2,73.1z M475.1,475.1H219.3V146.2h109.6V265
		c0,7.6,2.7,14.1,8,19.4c5.3,5.3,11.8,8,19.4,8h118.8L475.1,475.1L475.1,475.1z"/>
</g>
</svg>
