<?xml version="1.0" encoding="UTF-8" standalone="no"?>
<!-- Created with Inkscape (http://www.inkscape.org/) -->

<svg
   xmlns:dc="http://purl.org/dc/elements/1.1/"
   xmlns:cc="http://creativecommons.org/ns#"
   xmlns:rdf="http://www.w3.org/1999/02/22-rdf-syntax-ns#"
   xmlns:svg="http://www.w3.org/2000/svg"
   xmlns="http://www.w3.org/2000/svg"
   xmlns:sodipodi="http://sodipodi.sourceforge.net/DTD/sodipodi-0.dtd"
   xmlns:inkscape="http://www.inkscape.org/namespaces/inkscape"
   width="210mm"
   height="297mm"
   viewBox="0 0 210 297"
   version="1.1"
   id="svg8"
   inkscape:version="0.92.4 (5da689c313, 2019-01-14)"
   sodipodi:docname="ic_loco.svg">
  <defs
     id="defs2" />
  <sodipodi:namedview
     id="base"
     pagecolor="#ffffff"
     bordercolor="#666666"
     borderopacity="1.0"
     inkscape:pageopacity="0.0"
     inkscape:pageshadow="2"
     inkscape:zoom="0.49497475"
     inkscape:cx="291.64643"
     inkscape:cy="671.94898"
     inkscape:document-units="mm"
     inkscape:current-layer="layer1"
     showgrid="false"
     inkscape:window-width="1360"
     inkscape:window-height="705"
     inkscape:window-x="-8"
     inkscape:window-y="141"
     inkscape:window-maximized="1" />
  <metadata
     id="metadata5">
    <rdf:RDF>
      <cc:Work
         rdf:about="">
        <dc:format>image/svg+xml</dc:format>
        <dc:type
           rdf:resource="http://purl.org/dc/dcmitype/StillImage" />
        <dc:title></dc:title>
      </cc:Work>
    </rdf:RDF>
  </metadata>
  <g
     inkscape:label="Capa 1"
     inkscape:groupmode="layer"
     id="layer1"
     style="display:inline">
    <path
       style="fill:#d45500;stroke:none;stroke-width:0.26458332px;stroke-linecap:butt;stroke-linejoin:miter;stroke-opacity:1"
       d="M 79.733981,92.045192 123.76821,91.667214 101.27862,150.6315 h 9.07144 c -17.277688,44.96661 -37.075997,53.18169 -59.304471,60.5223 l 23.396725,-59.0104 -13.985119,10e-6 z"
       id="path826"
       inkscape:connector-curvature="0"
       sodipodi:nodetypes="cccccccc" />
    <path
       style="fill:#0055d4;stroke:none;stroke-width:0.26458332px;stroke-linecap:butt;stroke-linejoin:miter;stroke-opacity:1"
       d="m 149.64077,73.99519 c -27.32689,36.73389 -26.63492,84.45557 -17.8769,135.3404 -14.9179,-14.64062 -25.83261,-26.75291 -27.26148,-32.87415 4.85256,-8.09482 10.11806,-14.74437 13.63074,-27.52876 h -9.35443 l 21.91609,-57.935419 -3.74177,-0.329338 c 10.01069,-8.82172 16.9328,-13.52534 22.68775,-16.672733 z"
       id="path830"
       inkscape:connector-curvature="0"
       sodipodi:nodetypes="cccccccc" />
    <rect
       style="opacity:1;fill:#0066ff;fill-opacity:1;stroke:none;stroke-width:0.26458332"
       id="rect834"
       width="6.1471992"
       height="21.916101"
       x="130.16026"
       y="132.0947" />
    <path
       style="opacity:0.50800003;fill:none;fill-opacity:1;stroke-width:1.01015258"
       d="m 485.2581,776.42296 c -16.11735,-14.37457 -55.58744,-56.7078 -62.93673,-67.50214 -1.70221,-2.50013 -3.38883,-4.77297 -3.74805,-5.05076 -2.49065,-1.92605 -22.20864,-33.71617 -22.20864,-35.80563 0,-0.76418 2.49774,-5.18024 5.55054,-9.81347 3.0528,-4.63323 5.55293,-8.95439 5.55584,-9.60258 0.003,-0.64817 0.43366,-1.33003 0.95721,-1.51523 1.06966,-0.37836 14.36557,-23.49048 20.34631,-35.36772 2.14827,-4.26629 5.53068,-11.76667 7.51647,-16.66752 1.98579,-4.90084 4.04252,-9.9334 4.57051,-11.18347 3.33544,-7.89693 4.80058,-12.17643 5.87925,-17.17259 l 0.9269,-4.29315 h -17.5703 c -9.66366,0 -17.57029,-0.17814 -17.57029,-0.39588 0,-0.5827 13.64706,-36.55077 16.13892,-42.5356 0.46264,-1.11117 2.29151,-5.88414 4.06413,-10.6066 3.73847,-9.95968 4.9463,-12.96835 6.17877,-15.39112 0.49076,-0.96474 0.8923,-2.21975 0.8923,-2.78893 0,-0.56918 0.85533,-2.96183 1.90073,-5.31701 1.0454,-2.35517 2.46291,-5.87313 3.15003,-7.81767 0.68712,-1.94455 2.10463,-5.4625 3.15004,-7.81768 1.0454,-2.35518 1.90179,-4.62802 1.90309,-5.05076 0.001,-0.42275 2.95493,-8.26901 6.56363,-17.43614 3.60869,-9.16713 6.56232,-17.46301 6.56362,-18.43528 0.001,-0.97228 0.45694,-1.76777 1.01252,-1.76777 0.55558,0 1.01015,-0.88231 1.01015,-1.96069 0,-1.07838 0.45457,-2.24163 1.01015,-2.585 0.55559,-0.34337 1.01016,-1.49279 1.01016,-2.55427 0,-1.06148 0.90913,-3.5486 2.0203,-5.52695 1.11117,-1.97834 2.02031,-4.46547 2.02031,-5.52695 0,-1.06147 0.45457,-2.2109 1.01015,-2.55427 0.55558,-0.34337 1.01015,-1.7339 1.01015,-3.09007 0,-1.35618 0.45457,-2.46577 1.01015,-2.46577 0.55559,0 1.01016,-0.8823 1.01016,-1.96068 0,-1.07838 0.45457,-2.24163 1.01015,-2.585 0.55558,-0.34337 1.01015,-1.51279 1.01015,-2.59871 0,-1.08592 0.41743,-2.76372 0.92761,-3.72845 1.92265,-3.63562 5.13331,-11.36837 5.13331,-12.36336 0,-0.56918 0.40153,-1.8242 0.89229,-2.78893 0.49077,-0.96474 1.45294,-3.11777 2.13817,-4.78452 0.68522,-1.66675 1.64739,-3.81978 2.13816,-4.78452 0.49076,-0.96473 0.89229,-2.21975 0.89229,-2.78893 0,-0.56917 0.86498,-2.96183 1.92218,-5.317 1.0572,-2.35518 2.60451,-6.39411 3.43846,-8.97541 1.85677,-5.74718 0.99749,-6.92349 -5.05759,-6.92349 -2.38901,0 -4.34366,-0.40959 -4.34366,-0.9102 0,-0.79282 6.52628,-6.76644 14.00232,-12.81659 1.31207,-1.06181 2.96684,-2.48139 3.67727,-3.15462 0.71044,-0.67322 4.40991,-3.60035 8.22104,-6.50472 3.81113,-2.90437 7.08085,-5.64917 7.26604,-6.09956 0.18521,-0.45039 0.94282,-0.81888 1.6836,-0.81888 0.74077,0 1.49839,-0.36416 1.68359,-0.80923 0.18519,-0.44508 3.51869,-3.04336 7.40778,-5.77397 3.88909,-2.7306 7.29835,-5.22148 7.57614,-5.53528 2.07308,-2.3418 19.64017,-12.9003 20.75291,-12.4733 1.03984,0.39903 0.14224,2.4115 -3.46418,7.76695 -18.20163,27.02897 -33.29819,56.24468 -48.10286,93.09134 -3.44746,8.58024 -10.71236,31.40057 -14.79286,46.46702 -0.60188,2.22234 -1.44753,5.17703 -1.87921,6.56599 -0.43168,1.38896 -1.27281,5.02551 -1.86917,8.08122 -0.59636,3.05571 -1.3513,6.91955 -1.67764,8.5863 -0.32633,1.66675 -1.02536,5.07602 -1.55339,7.57614 -1.34314,6.35956 -2.90547,16.26126 -4.06434,25.75889 -0.54232,4.44467 -1.41119,11.49049 -1.93083,15.65737 -2.21594,17.76938 -3.22614,68.15074 -2.07011,103.24133 0.62774,19.05446 1.55259,38.73561 2.05522,43.73586 0.50264,5.00026 1.39368,14.09163 1.9801,20.20305 1.5899,16.56924 2.93184,28.45849 4.10458,36.3655 0.57682,3.88908 1.49435,10.25304 2.03897,14.14213 1.70982,12.20969 2.92586,20.02911 3.92736,25.25381 1.89998,9.912 2.11526,9.59645 -6.54717,9.59645 -5.28973,0 -7.42505,0.34094 -6.94996,1.10966 0.42944,0.69484 3.37823,0.97805 7.8883,0.75761 l 7.20249,-0.35204 1.74431,10.10153 c 2.83208,16.40095 2.87755,16.366 -8.3103,6.38791 z"
       id="path836"
       inkscape:connector-curvature="0"
       transform="scale(0.26458333)" />
    <path
       style="opacity:0.50800003;fill:none;fill-opacity:1;stroke-width:1.01015258"
       d="m 485.2581,776.42296 c -16.11735,-14.37457 -55.58744,-56.7078 -62.93673,-67.50214 -1.70221,-2.50013 -3.38883,-4.77297 -3.74805,-5.05076 -2.49065,-1.92605 -22.20864,-33.71617 -22.20864,-35.80563 0,-0.76418 2.49774,-5.18024 5.55054,-9.81347 3.0528,-4.63323 5.55293,-8.95439 5.55584,-9.60258 0.003,-0.64817 0.43366,-1.33003 0.95721,-1.51523 1.06966,-0.37836 14.36557,-23.49048 20.34631,-35.36772 2.14827,-4.26629 5.53068,-11.76667 7.51647,-16.66752 1.98579,-4.90084 4.04252,-9.9334 4.57051,-11.18347 3.33544,-7.89693 4.80058,-12.17643 5.87925,-17.17259 l 0.9269,-4.29315 h -17.5703 c -9.66366,0 -17.57029,-0.17814 -17.57029,-0.39588 0,-0.5827 13.64706,-36.55077 16.13892,-42.5356 0.46264,-1.11117 2.29151,-5.88414 4.06413,-10.6066 3.73847,-9.95968 4.9463,-12.96835 6.17877,-15.39112 0.49076,-0.96474 0.8923,-2.21975 0.8923,-2.78893 0,-0.56918 0.85533,-2.96183 1.90073,-5.31701 1.0454,-2.35517 2.46291,-5.87313 3.15003,-7.81767 0.68712,-1.94455 2.10463,-5.4625 3.15004,-7.81768 1.0454,-2.35518 1.90179,-4.62802 1.90309,-5.05076 0.001,-0.42275 2.95493,-8.26901 6.56363,-17.43614 3.60869,-9.16713 6.56232,-17.46301 6.56362,-18.43528 0.001,-0.97228 0.45694,-1.76777 1.01252,-1.76777 0.55558,0 1.01015,-0.88231 1.01015,-1.96069 0,-1.07838 0.45457,-2.24163 1.01015,-2.585 0.55559,-0.34337 1.01016,-1.49279 1.01016,-2.55427 0,-1.06148 0.90913,-3.5486 2.0203,-5.52695 1.11117,-1.97834 2.02031,-4.46547 2.02031,-5.52695 0,-1.06147 0.45457,-2.2109 1.01015,-2.55427 0.55558,-0.34337 1.01015,-1.7339 1.01015,-3.09007 0,-1.35618 0.45457,-2.46577 1.01015,-2.46577 0.55559,0 1.01016,-0.8823 1.01016,-1.96068 0,-1.07838 0.45457,-2.24163 1.01015,-2.585 0.55558,-0.34337 1.01015,-1.51279 1.01015,-2.59871 0,-1.08592 0.41743,-2.76372 0.92761,-3.72845 1.92265,-3.63562 5.13331,-11.36837 5.13331,-12.36336 0,-0.56918 0.40153,-1.8242 0.89229,-2.78893 0.49077,-0.96474 1.45294,-3.11777 2.13817,-4.78452 0.68522,-1.66675 1.64739,-3.81978 2.13816,-4.78452 0.49076,-0.96473 0.89229,-2.21975 0.89229,-2.78893 0,-0.56917 0.86498,-2.96183 1.92218,-5.317 1.0572,-2.35518 2.60451,-6.39411 3.43846,-8.97541 1.85677,-5.74718 0.99749,-6.92349 -5.05759,-6.92349 -2.38901,0 -4.34366,-0.40959 -4.34366,-0.9102 0,-0.79282 6.52628,-6.76644 14.00232,-12.81659 1.31207,-1.06181 2.96684,-2.48139 3.67727,-3.15462 0.71044,-0.67322 4.40991,-3.60035 8.22104,-6.50472 3.81113,-2.90437 7.08085,-5.64917 7.26604,-6.09956 0.18521,-0.45039 0.94282,-0.81888 1.6836,-0.81888 0.74077,0 1.49839,-0.36416 1.68359,-0.80923 0.18519,-0.44508 3.51869,-3.04336 7.40778,-5.77397 3.88909,-2.7306 7.29835,-5.22148 7.57614,-5.53528 2.07308,-2.3418 19.64017,-12.9003 20.75291,-12.4733 1.03984,0.39903 0.14224,2.4115 -3.46418,7.76695 -18.20163,27.02897 -33.29819,56.24468 -48.10286,93.09134 -3.44746,8.58024 -10.71236,31.40057 -14.79286,46.46702 -0.60188,2.22234 -1.44753,5.17703 -1.87921,6.56599 -0.43168,1.38896 -1.27281,5.02551 -1.86917,8.08122 -0.59636,3.05571 -1.3513,6.91955 -1.67764,8.5863 -0.32633,1.66675 -1.02536,5.07602 -1.55339,7.57614 -1.34314,6.35956 -2.90547,16.26126 -4.06434,25.75889 -0.54232,4.44467 -1.41119,11.49049 -1.93083,15.65737 -2.21594,17.76938 -3.22614,68.15074 -2.07011,103.24133 0.62774,19.05446 1.55259,38.73561 2.05522,43.73586 0.50264,5.00026 1.39368,14.09163 1.9801,20.20305 1.5899,16.56924 2.93184,28.45849 4.10458,36.3655 0.57682,3.88908 1.49435,10.25304 2.03897,14.14213 1.70982,12.20969 2.92586,20.02911 3.92736,25.25381 1.89998,9.912 2.11526,9.59645 -6.54717,9.59645 -5.28973,0 -7.42505,0.34094 -6.94996,1.10966 0.42944,0.69484 3.37823,0.97805 7.8883,0.75761 l 7.20249,-0.35204 1.74431,10.10153 c 2.83208,16.40095 2.87755,16.366 -8.3103,6.38791 z"
       id="path838"
       inkscape:connector-curvature="0"
       transform="scale(0.26458333)" />
  </g>
</svg>
