<?xml version="1.0" encoding="UTF-8" standalone="no"?>
<!-- Generator: Adobe Illustrator 23.0.3, SVG Export Plug-In . SVG Version: 6.00 Build 0)  -->

<svg
   xmlns:osb="http://www.openswatchbook.org/uri/2009/osb"
   xmlns:dc="http://purl.org/dc/elements/1.1/"
   xmlns:cc="http://creativecommons.org/ns#"
   xmlns:rdf="http://www.w3.org/1999/02/22-rdf-syntax-ns#"
   xmlns:svg="http://www.w3.org/2000/svg"
   xmlns="http://www.w3.org/2000/svg"
   xmlns:xlink="http://www.w3.org/1999/xlink"
   xmlns:sodipodi="http://sodipodi.sourceforge.net/DTD/sodipodi-0.dtd"
   xmlns:inkscape="http://www.inkscape.org/namespaces/inkscape"
   version="1.1"
   id="Capa_1"
   x="0px"
   y="0px"
   viewBox="0 0 402 402"
   style="enable-background:new 0 0 402 402;"
   xml:space="preserve"
   sodipodi:docname="ic_logo.svg"
   inkscape:version="0.92.4 (5da689c313, 2019-01-14)"><metadata
   id="metadata18"><rdf:RDF><cc:Work
       rdf:about=""><dc:format>image/svg+xml</dc:format><dc:type
         rdf:resource="http://purl.org/dc/dcmitype/StillImage" /><dc:title /></cc:Work></rdf:RDF></metadata><defs
   id="defs16"><linearGradient
     inkscape:collect="always"
     id="linearGradient2533"><stop
       style="stop-color:#000000;stop-opacity:1;"
       offset="0"
       id="stop2529" /><stop
       style="stop-color:#000000;stop-opacity:0;"
       offset="1"
       id="stop2531" /></linearGradient><linearGradient
     inkscape:collect="always"
     id="2100-7"><stop
       style="stop-color:#000000;stop-opacity:1;"
       offset="0"
       id="stop2289" /><stop
       style="stop-color:#000000;stop-opacity:0;"
       offset="1"
       id="stop2291" /></linearGradient><linearGradient
     id="linearGradient2285"
     osb:paint="solid"><stop
       style="stop-color:#d45500;stop-opacity:1;"
       offset="0"
       id="stop2283" /></linearGradient><linearGradient
     id="2100"
     osb:paint="solid"><stop
       style="stop-color:#d45500;stop-opacity:1;"
       offset="0"
       id="stop2275" /></linearGradient><linearGradient
     inkscape:collect="always"
     xlink:href="#2100"
     id="linearGradient2287"
     x1="22.373287"
     y1="226.31729"
     x2="258.91025"
     y2="226.31729"
     gradientUnits="userSpaceOnUse" /><radialGradient
     inkscape:collect="always"
     xlink:href="#2100-7"
     id="radialGradient2295"
     cx="140.58665"
     cy="226.42687"
     fx="140.58665"
     fy="226.42687"
     r="118.93952"
     gradientTransform="matrix(1,0,0,1.419328,0,-94.947123)"
     gradientUnits="userSpaceOnUse" /><filter
     inkscape:collect="always"
     style="color-interpolation-filters:sRGB"
     id="filter2525"
     x="-0.0072690896"
     width="1.0145382"
     y="-0.0051081778"
     height="1.0102164"><feGaussianBlur
       inkscape:collect="always"
       stdDeviation="0.71642012"
       id="feGaussianBlur2527" /></filter><filter
     inkscape:collect="always"
     style="color-interpolation-filters:sRGB"
     id="filter2569"
     x="-0.0091395926"
     width="1.0182792"
     y="-0.0044658953"
     height="1.0089318"><feGaussianBlur
       inkscape:collect="always"
       stdDeviation="0.7094448"
       id="feGaussianBlur2571" /></filter><filter
     inkscape:collect="always"
     style="color-interpolation-filters:sRGB"
     id="filter2725"
     x="-0.0063875689"
     width="1.0127751"
     y="-0.0056567725"
     height="1.0113135"><feGaussianBlur
       inkscape:collect="always"
       stdDeviation="0.13137168"
       id="feGaussianBlur2727" /></filter><radialGradient
     inkscape:collect="always"
     xlink:href="#linearGradient2533"
     id="radialGradient2741"
     cx="294.09741"
     cy="198.86484"
     fx="294.09741"
     fy="198.86484"
     r="94.850555"
     gradientTransform="matrix(1,0,0,2.0277444,0,-204.38224)"
     gradientUnits="userSpaceOnUse" /><radialGradient
     inkscape:collect="always"
     xlink:href="#linearGradient2533"
     id="radialGradient2743"
     cx="336.8848"
     cy="198.85655"
     fx="336.8848"
     fy="198.85655"
     r="24.995419"
     gradientTransform="matrix(1,0,0,1.1275601,0,-25.366169)"
     gradientUnits="userSpaceOnUse" /></defs><sodipodi:namedview
   pagecolor="#ffffff"
   bordercolor="#666666"
   borderopacity="1"
   objecttolerance="10"
   gridtolerance="10"
   guidetolerance="10"
   inkscape:pageopacity="0"
   inkscape:pageshadow="2"
   inkscape:window-width="1360"
   inkscape:window-height="705"
   id="namedview14"
   showgrid="false"
   inkscape:zoom="1.1741294"
   inkscape:cx="-18.326588"
   inkscape:cy="143.04343"
   inkscape:window-x="-8"
   inkscape:window-y="141"
   inkscape:window-maximized="1"
   inkscape:current-layer="Capa_1" />
<style
   type="text/css"
   id="style2">
	.st0{fill:url(#SVGID_1_);}
</style>

<path
   style="fill:url(#linearGradient2287);stroke:url(#radialGradient2295);stroke-width:0.80089229px;stroke-linecap:butt;stroke-linejoin:miter;stroke-opacity:1;fill-opacity:1;filter:url(#filter2525)"
   d="M 115.6849,59.082494 258.91024,58.017713 185.7608,224.12279 h 29.50568 C 159.06923,350.79578 94.67343,373.93803 22.373288,394.61686 l 76.099982,-166.23498 -45.487876,3e-5 z"
   id="path826"
   inkscape:connector-curvature="0"
   sodipodi:nodetypes="cccccccc" /><path
   style="fill:#0055d4;stroke:url(#radialGradient2741);stroke-width:0.93188411px;stroke-linecap:butt;stroke-linejoin:miter;stroke-opacity:1;filter:url(#filter2569)"
   d="M 387.2453,8.234817 C 266.90939,111.71586 269.95652,246.15 308.5231,389.49488 242.83106,348.25159 207.24164,325.00496 200.94952,307.76115 c 19.863,-25.51355 33.88803,-58.4322 49.35636,-94.4464 H 210.01634 L 283.92522,50.8136 273.16934,51.193645 C 317.25212,26.342459 361.90296,17.101166 387.2453,8.234817 Z"
   id="path830"
   inkscape:connector-curvature="0"
   sodipodi:nodetypes="cccccccc" /><path
   style="opacity:0.50800003;fill:none;fill-opacity:1;stroke-width:0.80902344"
   d="m 313.94695,378.48864 c -13.8703,-10.71399 -47.83752,-42.26678 -54.16218,-50.31227 -1.46489,-1.86346 -2.91637,-3.5575 -3.2255,-3.76455 -2.14341,-1.43557 -19.11235,-25.13012 -19.11235,-26.68749 0,-0.56957 2.14951,-3.86105 4.77669,-7.3144 2.62719,-3.45335 4.77875,-6.67409 4.78126,-7.15722 0.003,-0.48311 0.3732,-0.99133 0.82375,-1.12937 0.92053,-0.282 12.36275,-17.50847 17.50966,-26.36109 1.84876,-3.17985 4.7596,-8.77021 6.46853,-12.42302 1.70894,-3.65281 3.47892,-7.40379 3.9333,-8.33553 2.87042,-5.88592 4.13129,-9.07562 5.05957,-12.79947 l 0.79768,-3.19987 h -15.12068 c -8.31636,0 -15.12066,-0.13278 -15.12066,-0.29507 0,-0.43431 11.7444,-27.24287 13.88885,-31.70362 0.39814,-0.8282 1.97203,-4.38571 3.49752,-7.90556 3.21725,-7.42338 4.25669,-9.66587 5.31733,-11.47167 0.42234,-0.71906 0.7679,-1.65447 0.7679,-2.07871 0,-0.42423 0.73608,-2.20758 1.63573,-3.963 0.89965,-1.75541 2.11954,-4.37749 2.71086,-5.82684 0.59132,-1.44936 1.8112,-4.07144 2.71086,-5.82686 0.89966,-1.75542 1.63665,-3.44946 1.63777,-3.76455 8.6e-4,-0.31509 2.54296,-6.16325 5.64854,-12.99591 3.10557,-6.83266 5.64741,-13.01594 5.64852,-13.74061 8.7e-4,-0.72468 0.39324,-1.3176 0.87136,-1.3176 0.47812,0 0.86932,-0.65762 0.86932,-1.46138 0,-0.80377 0.39119,-1.67079 0.86931,-1.92671 0.47813,-0.25593 0.86933,-1.11265 0.86933,-1.90381 0,-0.79117 0.78238,-2.64493 1.73863,-4.11948 0.95625,-1.47454 1.73864,-3.32831 1.73864,-4.11947 0,-0.79116 0.3912,-1.64788 0.86932,-1.90381 0.47812,-0.25593 0.86931,-1.29235 0.86931,-2.30316 0,-1.010824 0.3912,-1.837849 0.86932,-1.837849 0.47813,0 0.86933,-0.657616 0.86933,-1.46138 0,-0.803763 0.39119,-1.670784 0.86931,-1.926712 0.47812,-0.255929 0.86932,-1.127548 0.86932,-1.936931 0,-0.809383 0.35923,-2.05992 0.79828,-2.778975 1.6546,-2.709785 4.41763,-8.473338 4.41763,-9.214948 0,-0.424234 0.34555,-1.359655 0.76789,-2.07871 0.42235,-0.719062 1.25037,-2.323809 1.84007,-3.56611 0.58969,-1.2423 1.41771,-2.847047 1.84006,-3.566109 0.42234,-0.719055 0.76789,-1.654476 0.76789,-2.078711 0,-0.424227 0.74438,-2.20758 1.65419,-3.96299 0.90981,-1.755417 2.24139,-4.765807 2.95908,-6.689761 1.5979,-4.283622 0.85842,-5.160377 -4.35247,-5.160377 -2.05594,0 -3.73807,-0.305285 -3.73807,-0.678412 0,-0.590923 5.61639,-5.04332 12.05013,-9.552759 1.12914,-0.791413 2.55321,-1.849487 3.16459,-2.351275 0.61139,-0.50178 3.79509,-2.683496 7.07488,-4.848249 3.27978,-2.164753 6.09364,-4.210571 6.25301,-4.546266 0.15939,-0.335695 0.81138,-0.610347 1.44888,-0.610347 0.63749,0 1.28949,-0.271424 1.44887,-0.603154 0.15937,-0.331737 3.02811,-2.268348 6.37499,-4.30359 3.34688,-2.035234 6.28083,-3.891795 6.51989,-4.125683 1.78405,-1.745445 16.90196,-9.615152 17.85957,-9.296891 0.89486,0.297415 0.1224,1.797396 -2.98121,5.789044 -15.66399,20.145861 -28.65581,41.921595 -41.39643,69.385005 -2.96682,6.395224 -9.21886,23.4042 -12.73046,34.63388 -0.51797,1.65641 -1.24572,3.85867 -1.61721,4.89392 -0.3715,1.03525 -1.09536,3.74573 -1.60857,6.02328 -0.51322,2.27755 -1.16291,5.15744 -1.44375,6.39974 -0.28083,1.2423 -0.88241,3.78338 -1.33682,5.64683 -1.15588,4.74005 -2.50039,12.12022 -3.49769,19.19921 -0.46671,3.31281 -1.21445,8.56436 -1.66164,11.67012 -1.907,13.24429 -2.77636,50.79569 -1.7815,76.95023 0.54022,14.20211 1.33613,28.87133 1.76869,32.59823 0.43256,3.72691 1.19937,10.5031 1.70403,15.05821 1.36824,12.34977 2.52309,21.21134 3.53233,27.10478 0.4964,2.8987 1.28601,7.64203 1.7547,10.54074 1.47144,9.10041 2.51794,14.92856 3.37981,18.82276 1.63509,7.38784 1.82035,7.15265 -5.63437,7.15265 -4.55225,0 -6.38986,0.25411 -5.98101,0.82707 0.36957,0.5179 2.90724,0.72899 6.78853,0.56468 l 6.19832,-0.26239 1.50112,7.52911 c 2.43724,12.22434 2.47637,12.19829 -7.15168,4.76119 z"
   id="path836"
   inkscape:connector-curvature="0" /><path
   style="opacity:0.50800003;fill:none;fill-opacity:1;stroke-width:0.80902344"
   d="m 313.94695,378.48864 c -13.8703,-10.71399 -47.83752,-42.26678 -54.16218,-50.31227 -1.46489,-1.86346 -2.91637,-3.5575 -3.2255,-3.76455 -2.14341,-1.43557 -19.11235,-25.13012 -19.11235,-26.68749 0,-0.56957 2.14951,-3.86105 4.77669,-7.3144 2.62719,-3.45335 4.77875,-6.67409 4.78126,-7.15722 0.003,-0.48311 0.3732,-0.99133 0.82375,-1.12937 0.92053,-0.282 12.36275,-17.50847 17.50966,-26.36109 1.84876,-3.17985 4.7596,-8.77021 6.46853,-12.42302 1.70894,-3.65281 3.47892,-7.40379 3.9333,-8.33553 2.87042,-5.88592 4.13129,-9.07562 5.05957,-12.79947 l 0.79768,-3.19987 h -15.12068 c -8.31636,0 -15.12066,-0.13278 -15.12066,-0.29507 0,-0.43431 11.7444,-27.24287 13.88885,-31.70362 0.39814,-0.8282 1.97203,-4.38571 3.49752,-7.90556 3.21725,-7.42338 4.25669,-9.66587 5.31733,-11.47167 0.42234,-0.71906 0.7679,-1.65447 0.7679,-2.07871 0,-0.42423 0.73608,-2.20758 1.63573,-3.963 0.89965,-1.75541 2.11954,-4.37749 2.71086,-5.82684 0.59132,-1.44936 1.8112,-4.07144 2.71086,-5.82686 0.89966,-1.75542 1.63665,-3.44946 1.63777,-3.76455 8.6e-4,-0.31509 2.54296,-6.16325 5.64854,-12.99591 3.10557,-6.83266 5.64741,-13.01594 5.64852,-13.74061 8.7e-4,-0.72468 0.39324,-1.3176 0.87136,-1.3176 0.47812,0 0.86932,-0.65762 0.86932,-1.46138 0,-0.80377 0.39119,-1.67079 0.86931,-1.92671 0.47813,-0.25593 0.86933,-1.11265 0.86933,-1.90381 0,-0.79117 0.78238,-2.64493 1.73863,-4.11948 0.95625,-1.47454 1.73864,-3.32831 1.73864,-4.11947 0,-0.79116 0.3912,-1.64788 0.86932,-1.90381 0.47812,-0.25593 0.86931,-1.29235 0.86931,-2.30316 0,-1.010824 0.3912,-1.837849 0.86932,-1.837849 0.47813,0 0.86933,-0.657616 0.86933,-1.46138 0,-0.803763 0.39119,-1.670784 0.86931,-1.926712 0.47812,-0.255929 0.86932,-1.127548 0.86932,-1.936931 0,-0.809383 0.35923,-2.05992 0.79828,-2.778975 1.6546,-2.709785 4.41763,-8.473338 4.41763,-9.214948 0,-0.424234 0.34555,-1.359655 0.76789,-2.07871 0.42235,-0.719062 1.25037,-2.323809 1.84007,-3.56611 0.58969,-1.2423 1.41771,-2.847047 1.84006,-3.566109 0.42234,-0.719055 0.76789,-1.654476 0.76789,-2.078711 0,-0.424227 0.74438,-2.20758 1.65419,-3.96299 0.90981,-1.755417 2.24139,-4.765807 2.95908,-6.689761 1.5979,-4.283622 0.85842,-5.160377 -4.35247,-5.160377 -2.05594,0 -3.73807,-0.305285 -3.73807,-0.678412 0,-0.590923 5.61639,-5.04332 12.05013,-9.552759 1.12914,-0.791413 2.55321,-1.849487 3.16459,-2.351275 0.61139,-0.50178 3.79509,-2.683496 7.07488,-4.848249 3.27978,-2.164753 6.09364,-4.210571 6.25301,-4.546266 0.15939,-0.335695 0.81138,-0.610347 1.44888,-0.610347 0.63749,0 1.28949,-0.271424 1.44887,-0.603154 0.15937,-0.331737 3.02811,-2.268348 6.37499,-4.30359 3.34688,-2.035234 6.28083,-3.891795 6.51989,-4.125683 1.78405,-1.745445 16.90196,-9.615152 17.85957,-9.296891 0.89486,0.297415 0.1224,1.797396 -2.98121,5.789044 -15.66399,20.145861 -28.65581,41.921595 -41.39643,69.385005 -2.96682,6.395224 -9.21886,23.4042 -12.73046,34.63388 -0.51797,1.65641 -1.24572,3.85867 -1.61721,4.89392 -0.3715,1.03525 -1.09536,3.74573 -1.60857,6.02328 -0.51322,2.27755 -1.16291,5.15744 -1.44375,6.39974 -0.28083,1.2423 -0.88241,3.78338 -1.33682,5.64683 -1.15588,4.74005 -2.50039,12.12022 -3.49769,19.19921 -0.46671,3.31281 -1.21445,8.56436 -1.66164,11.67012 -1.907,13.24429 -2.77636,50.79569 -1.7815,76.95023 0.54022,14.20211 1.33613,28.87133 1.76869,32.59823 0.43256,3.72691 1.19937,10.5031 1.70403,15.05821 1.36824,12.34977 2.52309,21.21134 3.53233,27.10478 0.4964,2.8987 1.28601,7.64203 1.7547,10.54074 1.47144,9.10041 2.51794,14.92856 3.37981,18.82276 1.63509,7.38784 1.82035,7.15265 -5.63437,7.15265 -4.55225,0 -6.38986,0.25411 -5.98101,0.82707 0.36957,0.5179 2.90724,0.72899 6.78853,0.56468 l 6.19832,-0.26239 1.50112,7.52911 c 2.43724,12.22434 2.47637,12.19829 -7.15168,4.76119 z"
   id="path838"
   inkscape:connector-curvature="0" /><path
   style="opacity:1;fill:#0055d4;fill-opacity:1;stroke-width:0.85169494;stroke:url(#radialGradient2743);stroke-opacity:1;filter:url(#filter2725)"
   d="m 327.88739,224.99381 c -20.13776,-9.09668 -21.11219,-40.69164 -1.58775,-51.4811 3.84161,-2.12293 5.51746,-2.52471 10.53054,-2.52471 5.01309,0 6.68894,0.40178 10.53055,2.52471 10.37116,5.73124 15.94835,18.09092 13.71669,30.39776 -2.48986,13.73079 -12.14411,22.81462 -24.24724,22.81462 -3.31286,0 -6.45815,-0.60891 -8.94279,-1.73128 z"
   id="path4554"
   inkscape:connector-curvature="0" /></svg>