<?xml version="1.0" encoding="utf-8"?>
<!-- Generator: Adobe Illustrator 23.0.3, SVG Export Plug-In . SVG Version: 6.00 Build 0)  -->
<svg version="1.1" id="Capa_1" xmlns="http://www.w3.org/2000/svg" xmlns:xlink="http://www.w3.org/1999/xlink" x="0px" y="0px"
	 viewBox="0 0 438.5 438.5" style="enable-background:new 0 0 438.5 438.5;" xml:space="preserve">
<style type="text/css">
	.st0{fill:url(#SVGID_1_);}
</style>
<linearGradient id="SVGID_1_" gradientUnits="userSpaceOnUse" x1="0" y1="219.267" x2="438.534" y2="219.267">
	<stop  offset="0" style="stop-color:#1245C6"/>
	<stop  offset="1" style="stop-color:#9909B7"/>
</linearGradient>
<path class="st0" d="M420.3,328.9h-402c-5,0-9.2,1.8-12.9,5.4c-3.6,3.6-5.4,7.9-5.4,12.8v36.5c0,4.9,1.8,9.2,5.4,12.8
	c3.6,3.6,7.9,5.4,12.9,5.4h402c4.9,0,9.2-1.8,12.8-5.4c3.6-3.6,5.4-7.9,5.4-12.8v-36.5c0-4.9-1.8-9.2-5.4-12.8
	C429.5,330.7,425.2,328.9,420.3,328.9z M433.1,42c-3.6-3.6-7.9-5.4-12.8-5.4h-402c-5,0-9.2,1.8-12.9,5.4C1.8,45.6,0,49.9,0,54.8
	v36.5c0,4.9,1.8,9.2,5.4,12.8c3.6,3.6,7.9,5.4,12.9,5.4h402c4.9,0,9.2-1.8,12.8-5.4c3.6-3.6,5.4-7.9,5.4-12.8V54.8
	C438.5,49.9,436.7,45.6,433.1,42z M420.3,182.7h-402c-5,0-9.2,1.8-12.9,5.4C1.8,191.8,0,196,0,201v36.5c0,4.9,1.8,9.2,5.4,12.8
	c3.6,3.6,7.9,5.4,12.9,5.4h402c4.9,0,9.2-1.8,12.8-5.4c3.6-3.6,5.4-7.9,5.4-12.8V201c0-4.9-1.8-9.2-5.4-12.8
	C429.5,184.5,425.2,182.7,420.3,182.7z"/>
</svg>
