<?xml version="1.0" encoding="utf-8"?>
<!-- Generator: Adobe Illustrator 23.0.3, SVG Export Plug-In . SVG Version: 6.00 Build 0)  -->
<svg version="1.1" id="Capa_1" xmlns="http://www.w3.org/2000/svg" xmlns:xlink="http://www.w3.org/1999/xlink" x="0px" y="0px"
	 viewBox="0 0 511.6 511.6" style="enable-background:new 0 0 511.6 511.6;" xml:space="preserve">
<style type="text/css">
	.st0{fill:url(#SVGID_1_);}
</style>
<linearGradient id="SVGID_1_" gradientUnits="userSpaceOnUse" x1="0" y1="255.813" x2="511.626" y2="255.813">
	<stop  offset="0" style="stop-color:#1245C6"/>
	<stop  offset="1" style="stop-color:#9909B7"/>
</linearGradient>
<path class="st0" d="M301.5,347.2h-91.4c-7.6,0-14.1,2.7-19.4,8c-5.3,5.3-8,11.8-8,19.4v54.8c0,7.6,2.7,14.1,8,19.4
	c5.3,5.3,11.8,8,19.4,8h91.4c7.6,0,14.1-2.7,19.4-8c5.3-5.3,8-11.8,8-19.4v-54.8c0-7.6-2.7-14.1-8-19.4S309.1,347.2,301.5,347.2z
	 M118.8,347.2H27.4c-7.6,0-14.1,2.7-19.4,8c-5.3,5.3-8,11.8-8,19.4v54.8c0,7.6,2.7,14.1,8,19.4c5.3,5.3,11.8,8,19.4,8h91.4
	c7.6,0,14.1-2.7,19.4-8c5.3-5.3,8-11.8,8-19.4v-54.8c0-7.6-2.7-14.1-8-19.4S126.4,347.2,118.8,347.2z M118.8,54.8H27.4
	c-7.6,0-14.1,2.7-19.4,8c-5.3,5.3-8,11.8-8,19.4V137c0,7.6,2.7,14.1,8,19.4c5.3,5.3,11.8,8,19.4,8h91.4c7.6,0,14.1-2.7,19.4-8
	s8-11.8,8-19.4V82.2c0-7.6-2.7-14.1-8-19.4C132.9,57.5,126.4,54.8,118.8,54.8z M301.5,201h-91.4c-7.6,0-14.1,2.7-19.4,8
	s-8,11.8-8,19.4v54.8c0,7.6,2.7,14.1,8,19.4c5.3,5.3,11.8,8,19.4,8h91.4c7.6,0,14.1-2.7,19.4-8c5.3-5.3,8-11.8,8-19.4v-54.8
	c0-7.6-2.7-14.1-8-19.4S309.1,201,301.5,201z M118.8,201H27.4c-7.6,0-14.1,2.7-19.4,8c-5.3,5.3-8,11.8-8,19.4v54.8
	c0,7.6,2.7,14.1,8,19.4c5.3,5.3,11.8,8,19.4,8h91.4c7.6,0,14.1-2.7,19.4-8c5.3-5.3,8-11.8,8-19.4v-54.8c0-7.6-2.7-14.1-8-19.4
	S126.4,201,118.8,201z M503.6,62.8c-5.3-5.3-11.8-8-19.4-8h-91.4c-7.6,0-14.1,2.7-19.4,8c-5.3,5.3-8,11.8-8,19.4V137
	c0,7.6,2.7,14.1,8,19.4c5.3,5.3,11.8,8,19.4,8h91.4c7.6,0,14.1-2.7,19.4-8s8-11.8,8-19.4V82.2C511.6,74.6,509,68.1,503.6,62.8z
	 M301.5,54.8h-91.4c-7.6,0-14.1,2.7-19.4,8s-8,11.8-8,19.4V137c0,7.6,2.7,14.1,8,19.4c5.3,5.3,11.8,8,19.4,8h91.4
	c7.6,0,14.1-2.7,19.4-8c5.3-5.3,8-11.8,8-19.4V82.2c0-7.6-2.7-14.1-8-19.4C315.6,57.5,309.1,54.8,301.5,54.8z M484.2,201h-91.4
	c-7.6,0-14.1,2.7-19.4,8c-5.3,5.3-8,11.8-8,19.4v54.8c0,7.6,2.7,14.1,8,19.4c5.3,5.3,11.8,8,19.4,8h91.4c7.6,0,14.1-2.7,19.4-8
	c5.3-5.3,8-11.8,8-19.4v-54.8c0-7.6-2.7-14.1-8-19.4C498.3,203.7,491.8,201,484.2,201z M484.2,347.2h-91.4c-7.6,0-14.1,2.7-19.4,8
	c-5.3,5.3-8,11.8-8,19.4v54.8c0,7.6,2.7,14.1,8,19.4c5.3,5.3,11.8,8,19.4,8h91.4c7.6,0,14.1-2.7,19.4-8c5.3-5.3,8-11.8,8-19.4v-54.8
	c0-7.6-2.7-14.1-8-19.4S491.8,347.2,484.2,347.2z"/>
</svg>
