<?xml version="1.0" encoding="utf-8"?>
<!-- Generator: Adobe Illustrator 23.0.3, SVG Export Plug-In . SVG Version: 6.00 Build 0)  -->
<svg version="1.1" id="Capa_1" xmlns="http://www.w3.org/2000/svg" xmlns:xlink="http://www.w3.org/1999/xlink" x="0px" y="0px"
	 viewBox="0 0 475.1 475.1" style="enable-background:new 0 0 475.1 475.1;" xml:space="preserve">
<style type="text/css">
	.st0{fill:url(#SVGID_1_);}
</style>
<g>
	<linearGradient id="SVGID_1_" gradientUnits="userSpaceOnUse" x1="0" y1="237.539" x2="475.078" y2="237.539">
		<stop  offset="0" style="stop-color:#1245C6"/>
		<stop  offset="1" style="stop-color:#9909B7"/>
	</linearGradient>
	<path class="st0" d="M459,217.1c-10.8-10.8-23.7-16.1-38.7-16.1H402v-73.1c0-7.6-1.9-16-5.7-25.1c-3.8-9.1-8.4-16.4-13.7-21.7
		l-43.4-43.4c-5.3-5.3-12.6-9.9-21.7-13.7c-9.1-3.8-17.5-5.7-25.1-5.7H100.5c-7.6,0-14.1,2.7-19.4,8c-5.3,5.3-8,11.8-8,19.4V201
		H54.8c-15,0-27.9,5.4-38.7,16.1C5.4,227.9,0,240.8,0,255.8v118.8c0,2.5,0.9,4.6,2.7,6.4c1.8,1.8,4,2.7,6.4,2.7h64v45.7
		c0,7.6,2.7,14.1,8,19.4c5.3,5.3,11.8,8,19.4,8h274.1c7.6,0,14.1-2.7,19.4-8c5.3-5.3,8-11.8,8-19.4v-45.7h64c2.5,0,4.6-0.9,6.4-2.7
		c1.8-1.8,2.7-3.9,2.7-6.4V255.8C475.1,240.8,469.7,227.9,459,217.1z M365.4,420.3H109.6v-73.1h255.8V420.3z M365.4,237.5H109.6
		V54.8h182.7v45.7c0,7.6,2.7,14.1,8,19.4c5.3,5.3,11.8,8,19.4,8h45.7L365.4,237.5L365.4,237.5z M433.1,268.7
		c-3.6,3.6-7.9,5.4-12.8,5.4s-9.2-1.8-12.8-5.4c-3.6-3.6-5.4-7.9-5.4-12.8s1.8-9.2,5.4-12.8c3.6-3.6,7.9-5.4,12.8-5.4
		c4.9,0,9.2,1.8,12.8,5.4c3.6,3.6,5.4,7.9,5.4,12.8C438.5,260.8,436.7,265,433.1,268.7z"/>
</g>
</svg>
