<?xml version="1.0" encoding="UTF-8" standalone="no"?>
<!-- Generator: Adobe Illustrator 23.0.3, SVG Export Plug-In . SVG Version: 6.00 Build 0)  -->

<svg
   xmlns:dc="http://purl.org/dc/elements/1.1/"
   xmlns:cc="http://creativecommons.org/ns#"
   xmlns:rdf="http://www.w3.org/1999/02/22-rdf-syntax-ns#"
   xmlns:svg="http://www.w3.org/2000/svg"
   xmlns="http://www.w3.org/2000/svg"
   xmlns:sodipodi="http://sodipodi.sourceforge.net/DTD/sodipodi-0.dtd"
   xmlns:inkscape="http://www.inkscape.org/namespaces/inkscape"
   version="1.1"
   id="Capa_1"
   x="0px"
   y="0px"
   viewBox="0 0 444.8 444.8"
   style="enable-background:new 0 0 444.8 444.8;"
   xml:space="preserve"
   sodipodi:docname="ic_siguiente.svg"
   inkscape:version="0.92.4 (5da689c313, 2019-01-14)"><metadata
   id="metadata18"><rdf:RDF><cc:Work
       rdf:about=""><dc:format>image/svg+xml</dc:format><dc:type
         rdf:resource="http://purl.org/dc/dcmitype/StillImage" /><dc:title></dc:title></cc:Work></rdf:RDF></metadata><defs
   id="defs16" /><sodipodi:namedview
   pagecolor="#ffffff"
   bordercolor="#666666"
   borderopacity="1"
   objecttolerance="10"
   gridtolerance="10"
   guidetolerance="10"
   inkscape:pageopacity="0"
   inkscape:pageshadow="2"
   inkscape:window-width="718"
   inkscape:window-height="480"
   id="namedview14"
   showgrid="false"
   inkscape:zoom="0.53057555"
   inkscape:cx="222.39999"
   inkscape:cy="222.39999"
   inkscape:window-x="258"
   inkscape:window-y="238"
   inkscape:window-maximized="0"
   inkscape:current-layer="Capa_1" />
<style
   type="text/css"
   id="style2">
	.st0{fill:url(#SVGID_1_);}
</style>
<g
   id="g11">
	<linearGradient
   id="SVGID_1_"
   gradientUnits="userSpaceOnUse"
   x1="82.222"
   y1="222.409"
   x2="362.596"
   y2="222.409">
		<stop
   offset="0"
   style="stop-color:#1245C6"
   id="stop4" />
		<stop
   offset="1"
   style="stop-color:#9909B7"
   id="stop6" />
	</linearGradient>
	<path
   class="st0"
   d="M352,196.7L165.9,10.8C159,3.6,150.5,0,140.2,0s-18.8,3.6-25.7,10.8L92.8,32.3c-7,7-10.6,15.6-10.6,25.7   c0,9.9,3.5,18.6,10.6,26l138.8,138.5L92.8,361.2c-7,7-10.6,15.6-10.6,25.7c0,9.9,3.5,18.6,10.6,26l21.7,21.4   c7,7,15.6,10.6,25.7,10.6c10.1,0,18.7-3.5,25.7-10.6L352,248.4c7-7.4,10.6-16.1,10.6-26C362.6,212.3,359.1,203.8,352,196.7z"
   id="path9" />
</g>
</svg>