<?xml version="1.0" encoding="utf-8"?>
<!-- Generator: Adobe Illustrator 23.0.3, SVG Export Plug-In . SVG Version: 6.00 Build 0)  -->
<svg version="1.1" id="Capa_1" xmlns="http://www.w3.org/2000/svg" xmlns:xlink="http://www.w3.org/1999/xlink" x="0px" y="0px"
	 viewBox="0 0 438.5 438.5" style="enable-background:new 0 0 438.5 438.5;" xml:space="preserve">
<style type="text/css">
	.st0{fill:url(#SVGID_1_);}
</style>
<linearGradient id="SVGID_1_" gradientUnits="userSpaceOnUse" x1="0" y1="219.2705" x2="438.543" y2="219.2705">
	<stop  offset="0" style="stop-color:#1245C6"/>
	<stop  offset="1" style="stop-color:#9909B7"/>
</linearGradient>
<path class="st0" d="M414.4,60.7c-16.1-16.1-35.4-24.1-58.1-24.1H265c-2.5,0-4.4,0.6-5.9,1.9c-1.4,1.2-2.4,3.1-2.9,5.6
	c-0.5,2.5-0.8,4.7-0.9,6.7c-0.1,2-0.1,4.5,0.1,7.6c0.2,3,0.3,4.9,0.3,5.7c0.6,1.5,0.8,2.8,0.6,3.9c-0.2,1,0.5,1.9,2,2.6
	c1.5,0.7,2.3,1.2,2.3,1.6s1.1,0.7,3.3,0.9c2.2,0.2,3.3,0.3,3.3,0.3h3.7h3.1h82.2c12.6,0,23.3,4.5,32.3,13.4
	c9,8.9,13.4,19.7,13.4,32.3v201c0,12.6-4.5,23.3-13.4,32.3c-8.9,8.9-19.7,13.4-32.3,13.4H265c-2.5,0-4.4,0.6-5.9,1.9
	c-1.4,1.2-2.4,3.1-2.9,5.6c-0.5,2.5-0.8,4.7-0.9,6.7c-0.1,2-0.1,4.5,0.1,7.6c0.2,3,0.3,4.9,0.3,5.7c0,2.5,0.9,4.6,2.7,6.4
	c1.8,1.8,3.9,2.7,6.4,2.7h91.4c22.6,0,42-8,58.1-24.1c16.1-16.1,24.1-35.4,24.1-58.1v-201C438.5,96.1,430.5,76.8,414.4,60.7z
	 M338,219.3c0-4.9-1.8-9.2-5.4-12.9L177.3,51.1c-3.6-3.6-7.9-5.4-12.8-5.4s-9.2,1.8-12.9,5.4c-3.6,3.6-5.4,7.9-5.4,12.9v82.2H18.3
	c-5,0-9.2,1.8-12.9,5.4c-3.6,3.6-5.4,7.9-5.4,12.9v109.6c0,4.9,1.8,9.2,5.4,12.8c3.6,3.6,7.9,5.4,12.9,5.4h127.9v82.2
	c0,4.9,1.8,9.2,5.4,12.8c3.6,3.6,7.9,5.4,12.9,5.4c4.9,0,9.2-1.8,12.8-5.4l155.3-155.3C336.2,228.5,338,224.2,338,219.3z"/>
</svg>
