<?xml version="1.0" encoding="utf-8"?>
<!-- Generator: Adobe Illustrator 23.0.3, SVG Export Plug-In . SVG Version: 6.00 Build 0)  -->
<svg version="1.1" id="Capa_1" xmlns="http://www.w3.org/2000/svg" xmlns:xlink="http://www.w3.org/1999/xlink" x="0px" y="0px"
	 viewBox="0 0 548.2 548.2" style="enable-background:new 0 0 548.2 548.2;" xml:space="preserve">
<style type="text/css">
	.st0{fill:url(#SVGID_1_);}
</style>
<linearGradient id="SVGID_1_" gradientUnits="userSpaceOnUse" x1="0" y1="274.1" x2="548.3" y2="274.1">
	<stop  offset="0" style="stop-color:#1245C6"/>
	<stop  offset="1" style="stop-color:#9909B7"/>
</linearGradient>
<path class="st0" d="M317.8,368.6c-1.7-2.1-4.1-3.1-7.1-3.1H146.2V255.8H201c4.9,0,9.2-1.8,12.8-5.4c3.6-3.6,5.4-7.9,5.4-12.9
	c0-4.6-1.4-8.5-4.3-11.7l-91.4-109.6c-3.6-4.2-8.3-6.3-14-6.3s-10.4,2.1-14,6.3L4.3,225.8C1.4,229.1,0,233,0,237.5
	c0,5,1.8,9.2,5.4,12.9c3.6,3.6,7.9,5.4,12.9,5.4h54.8v118.8v45.7v3.1v3.7c0,0.6,0.1,1.7,0.3,3.3c0.2,1.6,0.5,2.7,0.9,3.3
	c0.4,0.6,0.9,1.3,1.6,2.3s1.5,1.6,2.6,2c1,0.4,2.3,0.6,3.9,0.6h274.1c2.5,0,4.6-0.9,6.4-2.7c1.8-1.8,2.7-3.9,2.7-6.4
	c0-1.9-0.7-3.9-2-6L317.8,368.6z M542.7,297.8c-3.6-3.6-7.9-5.4-12.8-5.4h-54.8V173.6v-45.7v-3.1v-3.7c0-0.6-0.1-1.7-0.3-3.3
	c-0.2-1.6-0.5-2.7-0.9-3.3c-0.4-0.6-0.9-1.3-1.6-2.3c-0.7-0.9-1.5-1.6-2.6-2c-1-0.4-2.3-0.6-3.9-0.6H191.9c-2.5,0-4.6,0.9-6.4,2.7
	c-1.8,1.8-2.7,4-2.7,6.4c0,2.1,0.7,4,2,5.7l45.7,54.8c1.7,2.3,4.1,3.4,7.1,3.4H402v109.6h-54.8c-4.9,0-9.2,1.8-12.8,5.4
	c-3.6,3.6-5.4,7.9-5.4,12.9c0,4.6,1.4,8.5,4.3,11.7L424.6,432c3.8,4.4,8.5,6.6,14,6.6s10.2-2.2,14-6.6L544,322.4
	c2.9-3.2,4.3-7.1,4.3-11.7C548.2,305.7,546.4,301.4,542.7,297.8z"/>
</svg>
