<?xml version="1.0" encoding="utf-8"?>
<!-- Generator: Adobe Illustrator 23.0.3, SVG Export Plug-In . SVG Version: 6.00 Build 0)  -->
<svg version="1.1" id="Capa_1" xmlns="http://www.w3.org/2000/svg" xmlns:xlink="http://www.w3.org/1999/xlink" x="0px" y="0px"
	 viewBox="0 0 438.5 438.5" style="enable-background:new 0 0 438.5 438.5;" xml:space="preserve">
<style type="text/css">
	.st0{fill:url(#SVGID_1_);}
</style>
<g>
	<linearGradient id="SVGID_1_" gradientUnits="userSpaceOnUse" x1="54.818" y1="219.266" x2="383.715" y2="219.266">
		<stop  offset="0" style="stop-color:#1245C6"/>
		<stop  offset="1" style="stop-color:#9909B7"/>
	</linearGradient>
	<path class="st0" d="M375.7,227.3c-5.3-5.3-11.8-8-19.4-8H146.2v-91.4c0-20.2,7.1-37.4,21.4-51.7c14.3-14.3,31.5-21.4,51.7-21.4
		c20.2,0,37.4,7.1,51.7,21.4c14.3,14.3,21.4,31.5,21.4,51.7c0,4.9,1.8,9.2,5.4,12.8c3.6,3.6,7.9,5.4,12.8,5.4h18.3
		c4.9,0,9.2-1.8,12.8-5.4c3.6-3.6,5.4-7.9,5.4-12.8c0-35.2-12.5-65.3-37.5-90.4c-25-25-55.2-37.5-90.4-37.5
		c-35.2,0-65.3,12.5-90.4,37.5c-25,25-37.5,55.1-37.5,90.4v91.4h-9.1c-7.6,0-14.1,2.7-19.4,8s-8,11.8-8,19.4v164.5
		c0,7.6,2.7,14.1,8,19.4c5.3,5.3,11.8,8,19.4,8h274.1c7.6,0,14.1-2.7,19.4-8c5.3-5.3,8-11.8,8-19.4V246.7
		C383.7,239.1,381.1,232.6,375.7,227.3z"/>
</g>
</svg>
